<?xml version="1.0" encoding="UTF-8"?>
<!DOCTYPE svg PUBLIC "-//W3C//DTD SVG 1.1//EN" "http://www.w3.org/Graphics/SVG/1.1/DTD/svg11.dtd">
<svg xmlns="http://www.w3.org/2000/svg" version="1.1" width="610px" height="610px" style="shape-rendering:geometricPrecision; text-rendering:geometricPrecision; image-rendering:optimizeQuality; fill-rule:evenodd; clip-rule:evenodd" xmlns:xlink="http://www.w3.org/1999/xlink">
<g><path style="opacity:1" fill="#eeeeee" d="M -0.5,-0.5 C 87.1667,-0.5 174.833,-0.5 262.5,-0.5C 262.5,1.16667 262.5,2.83333 262.5,4.5C 264.5,4.5 266.5,4.5 268.5,4.5C 268.5,18.1667 268.5,31.8333 268.5,45.5C 266.5,45.5 264.5,45.5 262.5,45.5C 262.216,47.4147 262.549,49.0813 263.5,50.5C 272.506,50.6664 281.506,50.4998 290.5,50C 302.343,46.0121 308.343,37.6788 308.5,25C 308.531,17.757 306.198,11.4236 301.5,6C 297.561,3.53365 293.561,1.36699 289.5,-0.5C 396.167,-0.5 502.833,-0.5 609.5,-0.5C 609.5,202.833 609.5,406.167 609.5,609.5C 406.167,609.5 202.833,609.5 -0.5,609.5C -0.5,509.833 -0.5,410.167 -0.5,310.5C 2.62283,315.457 6.62283,319.624 11.5,323C 25.0931,327.132 36.5931,323.965 46,313.5C 46.8471,311.146 47.6805,308.812 48.5,306.5C 50.0468,304.193 50.7135,301.527 50.5,298.5C 50.6575,295.186 49.9908,292.186 48.5,289.5C 45.3448,281.513 39.6781,276.013 31.5,273C 17.6379,269.608 6.97125,273.775 -0.5,285.5C -0.5,276.167 -0.5,266.833 -0.5,257.5C 0.833333,257.5 2.16667,257.5 3.5,257.5C 3.5,256.167 3.5,254.833 3.5,253.5C 17.4057,255.197 31.0723,257.531 44.5,260.5C 44.5,262.5 44.5,264.5 44.5,266.5C 45.8333,266.5 47.1667,266.5 48.5,266.5C 49.3921,260.814 50.3921,255.147 51.5,249.5C 50.0813,248.549 48.4147,248.216 46.5,248.5C 46.5,249.833 46.5,251.167 46.5,252.5C 46.38,253.586 45.7133,254.253 44.5,254.5C 33.6743,252.622 23.0077,250.456 12.5,248C 25.4065,243.046 38.4065,238.379 51.5,234C 54.6399,233 55.9732,230.833 55.5,227.5C 43.5011,225.167 31.5011,222.833 19.5,220.5C 17.0948,219.232 14.4282,218.565 11.5,218.5C 11.5,216.5 11.5,214.5 11.5,212.5C 9.21879,212.077 7.55213,212.744 6.5,214.5C 5.36786,219.76 4.7012,225.093 4.5,230.5C 5.83333,230.5 7.16667,230.5 8.5,230.5C 8.17763,227.468 9.51096,225.801 12.5,225.5C 22.2522,226.903 31.9189,228.736 41.5,231C 27.9805,235.963 14.3139,240.463 0.5,244.5C 0.801552,247.059 0.468218,249.393 -0.5,251.5C -0.5,167.5 -0.5,83.5 -0.5,-0.5 Z"/></g>
<g><path style="opacity:1" fill="#242424" d="M 234.5,3.5 C 245.321,4.98318 249.321,10.9832 246.5,21.5C 245.359,23.8079 243.692,25.6413 241.5,27C 244.276,27.0657 246.442,28.2324 248,30.5C 250.346,35.5553 251.679,40.8887 252,46.5C 254.027,46.9863 256.193,46.9863 258.5,46.5C 258.5,48.1667 258.5,49.8333 258.5,51.5C 254.5,51.8333 250.5,52.1667 246.5,52.5C 245.841,45.5254 244.174,38.8587 241.5,32.5C 236.181,31.2753 230.848,31.2753 225.5,32.5C 226.662,38.8119 227.662,45.1453 228.5,51.5C 230.833,51.5 233.167,51.5 235.5,51.5C 235.5,53.1667 235.5,54.8333 235.5,56.5C 229.484,57.0366 223.484,57.7032 217.5,58.5C 218.778,55.5071 220.111,52.5071 221.5,49.5C 219.165,37.4951 216.832,25.4951 214.5,13.5C 211.396,14.0289 209.063,13.0289 207.5,10.5C 216.435,7.51863 225.435,5.1853 234.5,3.5 Z"/></g>
<g><path style="opacity:1" fill="#e8e8e8" d="M 225.5,9.5 C 230.041,9.05223 234.374,9.7189 238.5,11.5C 241.636,16.5842 240.969,21.0842 236.5,25C 232.371,26.9489 228.037,28.1156 223.5,28.5C 222.663,23.4818 221.663,18.4818 220.5,13.5C 220.608,12.5581 220.941,11.7247 221.5,11C 223.058,10.79 224.391,10.29 225.5,9.5 Z"/></g>
<g><path style="opacity:1" fill="#232323" d="M 361.5,10.5 C 374.039,8.55389 384.206,12.5539 392,22.5C 398.279,35.9131 396.112,47.7464 385.5,58C 372.454,66.0867 360.288,64.9201 349,54.5C 339.798,41.0822 340.631,28.2489 351.5,16C 354.596,13.5788 357.929,11.7455 361.5,10.5 Z"/></g>
<g><path style="opacity:1" fill="#eaeaea" d="M 362.5,16.5 C 373.526,14.6937 382.026,18.3604 388,27.5C 391.026,39.4222 387.526,48.9222 377.5,56C 364.781,59.6355 355.448,55.6355 349.5,44C 348.45,40.5449 348.283,37.0449 349,33.5C 350.411,25.2677 354.911,19.6011 362.5,16.5 Z"/></g>
<g><path style="opacity:1" fill="#262626" d="M 171.5,21.5 C 197.003,18.8393 208.836,30.1727 207,55.5C 197.988,72.9247 184.488,77.758 166.5,70C 153.395,59.3863 150.895,46.553 159,31.5C 163.066,27.9228 167.232,24.5894 171.5,21.5 Z"/></g>
<g><path style="opacity:1" fill="#ececec" d="M 177.5,26.5 C 196.009,27.5183 203.509,37.185 200,55.5C 194.178,65.989 185.345,69.8224 173.5,67C 163.858,60.8783 159.691,52.045 161,40.5C 162.586,38.3295 163.92,35.9962 165,33.5C 166.975,32.522 168.642,31.1887 170,29.5C 172.72,28.7667 175.22,27.7667 177.5,26.5 Z"/></g>
<g><path style="opacity:1" fill="#292929" d="M 262.5,-0.5 C 271.5,-0.5 280.5,-0.5 289.5,-0.5C 293.561,1.36699 297.561,3.53365 301.5,6C 306.198,11.4236 308.531,17.757 308.5,25C 308.343,37.6788 302.343,46.0121 290.5,50C 281.506,50.4998 272.506,50.6664 263.5,50.5C 263.5,49.1667 263.5,47.8333 263.5,46.5C 265.415,46.7845 267.081,46.4511 268.5,45.5C 268.5,31.8333 268.5,18.1667 268.5,4.5C 266.5,4.5 264.5,4.5 262.5,4.5C 262.5,2.83333 262.5,1.16667 262.5,-0.5 Z"/></g>
<g><path style="opacity:1" fill="#ececec" d="M 275.5,4.5 C 296.215,3.38354 304.715,13.0502 301,33.5C 298.394,39.5535 293.894,43.3868 287.5,45C 283.514,45.4988 279.514,45.6655 275.5,45.5C 275.5,31.8333 275.5,18.1667 275.5,4.5 Z"/></g>
<g><path style="opacity:1" fill="#7b7b7b" d="M 268.5,45.5 C 267.081,46.4511 265.415,46.7845 263.5,46.5C 263.5,47.8333 263.5,49.1667 263.5,50.5C 262.549,49.0813 262.216,47.4147 262.5,45.5C 264.5,45.5 266.5,45.5 268.5,45.5 Z"/></g>
<g><path style="opacity:1" fill="#262626" d="M 408.5,25.5 C 420.699,30.6004 432.366,36.7671 443.5,44C 441.285,46.9281 439.452,50.0948 438,53.5C 436.293,54.1383 434.46,54.1383 432.5,53.5C 433.561,50.1365 434.561,46.8032 435.5,43.5C 429.849,41.2587 424.349,38.5921 419,35.5C 415.872,39.5846 413.372,44.0846 411.5,49C 412.272,50.221 413.272,51.221 414.5,52C 418.079,53.7059 421.579,55.5392 425,57.5C 425.884,59.6406 425.384,61.3073 423.5,62.5C 418.39,59.9796 413.39,57.3129 408.5,54.5C 405.594,60.0788 402.26,65.4121 398.5,70.5C 400.091,72.6326 402.091,74.2993 404.5,75.5C 404,76.5 403.5,77.5 403,78.5C 396.9,76.2054 391.4,73.0387 386.5,69C 386.667,68.5 386.833,68 387,67.5C 389.355,66.8686 391.522,66.8686 393.5,67.5C 399.74,55.5136 406.074,43.6803 412.5,32C 409.36,30.9996 408.027,28.8329 408.5,25.5 Z"/></g>
<g><path style="opacity:1" fill="#222222" d="M 472.5,66.5 C 482.723,74.3812 492.39,83.0478 501.5,92.5C 499.016,95.4843 496.35,98.3176 493.5,101C 491.361,101.264 489.694,100.431 488.5,98.5C 489.815,96.6841 491.315,95.0175 493,93.5C 493.667,92.5 493.667,91.5 493,90.5C 488.5,87.3333 484.667,83.5 481.5,79C 480.5,78.3333 479.5,78.3333 478.5,79C 475.353,82.9812 472.02,86.8145 468.5,90.5C 472.458,93.9567 476.292,97.6233 480,101.5C 480.167,104 479,105.167 476.5,105C 472.687,101.264 468.687,97.7643 464.5,94.5C 460.543,98.9585 456.376,103.292 452,107.5C 451.333,108.167 451.333,108.833 452,109.5C 455.924,111.59 456.258,113.923 453,116.5C 447.887,112.39 443.053,107.89 438.5,103C 439.399,101.764 440.566,100.93 442,100.5C 443.7,101.927 445.533,102.76 447.5,103C 456.523,93.3123 465.523,83.6456 474.5,74C 473.5,72.3333 472.5,70.6667 471.5,69C 471.743,68.0979 472.077,67.2646 472.5,66.5 Z"/></g>
<g><path style="opacity:1" fill="#212121" d="M 131.5,42.5 C 135.87,43.6008 136.536,45.9341 133.5,49.5C 138.909,62.9011 144.409,76.2344 150,89.5C 150.721,95.0597 148.555,96.5597 143.5,94C 134.667,87.8333 125.833,81.6667 117,75.5C 121.137,86.8053 125.637,98.1386 130.5,109.5C 129.167,110.5 127.833,111.5 126.5,112.5C 113.659,103.913 100.992,95.0797 88.5,86C 86.8932,85.8849 85.3932,86.3849 84,87.5C 82.2307,86.6291 81.564,85.2957 82,83.5C 85.69,80.3092 89.5233,77.3092 93.5,74.5C 96.3147,77.087 95.9814,79.2536 92.5,81C 101.974,87.6401 111.307,94.4735 120.5,101.5C 120.833,101.167 121.167,100.833 121.5,100.5C 116.581,90.4085 112.248,80.0752 108.5,69.5C 106.516,69.3832 104.85,70.0499 103.5,71.5C 102.328,71.0814 101.328,70.4147 100.5,69.5C 104.237,65.1312 108.57,61.4645 113.5,58.5C 116.019,60.3591 116.019,62.3591 113.5,64.5C 122.192,72.0129 131.359,79.0129 141,85.5C 137.63,74.759 133.63,64.0923 129,53.5C 128.586,53.0426 128.086,52.7093 127.5,52.5C 125.5,56.5 123.5,56.5 121.5,52.5C 125.161,49.5061 128.494,46.1727 131.5,42.5 Z"/></g>
<g><path style="opacity:1" fill="#202020" d="M 506.5,99.5 C 508.371,99.8588 509.871,100.859 511,102.5C 513.667,105.833 516.333,109.167 519,112.5C 519.268,114.59 518.268,115.924 516,116.5C 514.66,115.132 513.326,113.799 512,112.5C 501.099,120.061 490.766,128.394 481,137.5C 480.86,139.256 481.36,140.922 482.5,142.5C 482.131,144.39 481.131,145.224 479.5,145C 475.644,140.645 471.977,136.145 468.5,131.5C 471.379,128.733 473.879,129.067 476,132.5C 486.659,124.006 497.159,115.339 507.5,106.5C 506.5,105.167 505.5,103.833 504.5,102.5C 505.193,101.482 505.859,100.482 506.5,99.5 Z"/></g>
<g><path style="opacity:1" fill="#3e6a95" d="M 389.5,132.5 C 389.665,135.518 389.498,138.518 389,141.5C 388.722,140.584 388.222,139.918 387.5,139.5C 384.216,138.117 381.549,139.117 379.5,142.5C 371.247,154.751 361.913,166.084 351.5,176.5C 350.697,175.577 350.53,174.577 351,173.5C 355.946,169.888 360.279,165.554 364,160.5C 364.113,158.026 365.113,156.026 367,154.5C 367.333,154.833 367.667,155.167 368,155.5C 371.005,151.003 374.172,146.669 377.5,142.5C 378.681,140.802 378.681,139.135 377.5,137.5C 372.882,139.74 370.549,143.407 370.5,148.5C 367.978,149.011 365.645,150.011 363.5,151.5C 369.185,141.99 375.519,132.823 382.5,124C 384.441,123.257 386.274,123.424 388,124.5C 389.079,127.063 389.579,129.729 389.5,132.5 Z"/></g>
<g><path style="opacity:1" fill="#476c95" d="M 406.5,139.5 C 405.617,142.385 404.284,145.052 402.5,147.5C 401.202,148.116 400.202,148.116 399.5,147.5C 400.224,144.157 401.057,140.824 402,137.5C 403.095,128.543 399.262,122.709 390.5,120C 403.9,119.59 409.233,126.09 406.5,139.5 Z"/></g>
<g><path style="opacity:1" fill="#96adbd" d="M 389.5,132.5 C 390.879,138.617 391.546,144.95 391.5,151.5C 390.683,149.031 390.183,146.365 390,143.5C 389.503,146.146 389.336,148.813 389.5,151.5C 388.518,147.684 387.851,143.684 387.5,139.5C 388.222,139.918 388.722,140.584 389,141.5C 389.498,138.518 389.665,135.518 389.5,132.5 Z"/></g>
<g><path style="opacity:1" fill="#2f669f" d="M 351.5,176.5 C 347.941,177.425 344.607,178.758 341.5,180.5C 343.013,175.952 344.346,171.285 345.5,166.5C 349.247,166.608 352.914,166.108 356.5,165C 359.622,161.03 361.622,156.53 362.5,151.5C 362.833,151.5 363.167,151.5 363.5,151.5C 365.645,150.011 367.978,149.011 370.5,148.5C 370.549,143.407 372.882,139.74 377.5,137.5C 378.681,139.135 378.681,140.802 377.5,142.5C 374.172,146.669 371.005,151.003 368,155.5C 367.667,155.167 367.333,154.833 367,154.5C 365.113,156.026 364.113,158.026 364,160.5C 360.279,165.554 355.946,169.888 351,173.5C 350.53,174.577 350.697,175.577 351.5,176.5 Z"/></g>
<g><path style="opacity:1" fill="#3a6ba1" d="M 338.5,152.5 C 338.666,158.176 338.499,163.843 338,169.5C 336.583,170.078 335.75,171.078 335.5,172.5C 326.67,178.226 321.337,175.893 319.5,165.5C 323.438,156.016 327.438,146.516 331.5,137C 332.784,136.316 333.951,136.483 335,137.5C 336.955,142.318 338.121,147.318 338.5,152.5 Z"/></g>
<g><path style="opacity:1" fill="#1f1f1f" d="M 524.5,121.5 C 526.193,122.475 527.693,123.808 529,125.5C 532.068,131.299 535.401,136.966 539,142.5C 542.746,151.165 540.579,157.665 532.5,162C 528.958,162.851 525.625,162.351 522.5,160.5C 521.957,164.552 519.957,167.718 516.5,170C 512.635,172.095 508.968,174.428 505.5,177C 507.907,179.092 507.907,181.092 505.5,183C 504.668,183.688 504.002,183.521 503.5,182.5C 501.563,179.624 499.896,176.624 498.5,173.5C 498.833,172.833 499.167,172.167 499.5,171.5C 505.582,169.046 511.082,165.713 516,161.5C 516.117,155.398 513.784,150.398 509,146.5C 504.51,148.984 500.01,151.484 495.5,154C 493.2,156.005 493.2,158.172 495.5,160.5C 494.652,162.283 493.319,162.783 491.5,162C 488.444,158.049 485.778,153.882 483.5,149.5C 483.545,146.811 484.879,145.477 487.5,145.5C 487.176,148.68 488.51,149.847 491.5,149C 502.905,142.641 513.905,135.807 524.5,128.5C 522.15,125.941 522.15,123.607 524.5,121.5 Z"/></g>
<g><path style="opacity:1" fill="#e8e8e8" d="M 525.5,135.5 C 527.484,135.383 529.15,136.05 530.5,137.5C 533.493,141.787 534.993,146.454 535,151.5C 531.589,156.612 527.089,157.778 521.5,155C 518.661,151.655 516.328,147.989 514.5,144C 517.779,140.69 521.446,137.857 525.5,135.5 Z"/></g>
<g><path style="opacity:1" fill="#1f1f1f" d="M 44.5,131.5 C 46.3464,131.222 47.6798,131.889 48.5,133.5C 46.8439,135.412 46.5105,137.412 47.5,139.5C 58.6692,146.25 69.6692,153.25 80.5,160.5C 83.6496,156.881 86.3163,152.881 88.5,148.5C 86.1748,146.335 83.8414,144.168 81.5,142C 81.7895,139.3 83.1229,137.967 85.5,138C 88.3603,140.36 91.3603,142.527 94.5,144.5C 95.8333,145.833 95.8333,147.167 94.5,148.5C 89.5399,156.923 84.2066,165.09 78.5,173C 76.6815,173.783 75.3482,173.283 74.5,171.5C 75.624,170.086 76.624,168.586 77.5,167C 66.328,159.915 55.328,152.581 44.5,145C 43.5,144.333 42.5,144.333 41.5,145C 40.2135,148.822 38.2135,149.322 35.5,146.5C 38.2598,141.307 41.2598,136.307 44.5,131.5 Z"/></g>
<g><path style="opacity:1" fill="#68889f" d="M 338.5,152.5 C 340.482,161.835 339.482,170.835 335.5,179.5C 335.5,177.167 335.5,174.833 335.5,172.5C 335.75,171.078 336.583,170.078 338,169.5C 338.499,163.843 338.666,158.176 338.5,152.5 Z"/></g>
<g><path style="opacity:1" fill="#577184" d="M 391.5,151.5 C 391.336,154.187 391.503,156.854 392,159.5C 394.953,155.659 397.453,151.659 399.5,147.5C 400.202,148.116 401.202,148.116 402.5,147.5C 399.767,153.29 396.267,158.623 392,163.5C 391.501,168.823 391.334,174.156 391.5,179.5C 390.955,174.473 389.955,169.473 388.5,164.5C 389.373,160.232 389.706,155.898 389.5,151.5C 389.336,148.813 389.503,146.146 390,143.5C 390.183,146.365 390.683,149.031 391.5,151.5 Z"/></g>
<g><path style="opacity:1" fill="#1c1c1c" d="M 70.5,187.5 C 69.8423,188.398 69.1757,189.398 68.5,190.5C 67.5832,189.873 66.5832,189.539 65.5,189.5C 65.3832,187.516 66.0499,185.85 67.5,184.5C 62.8687,183.338 58.202,183.172 53.5,184C 51.0917,188.652 49.0917,193.485 47.5,198.5C 50.1312,202.124 53.4646,205.124 57.5,207.5C 58.3567,206.264 59.0234,204.931 59.5,203.5C 60.6507,202.269 61.8173,202.269 63,203.5C 61.4271,208.731 59.9271,214.064 58.5,219.5C 57.0695,219.579 55.7362,219.246 54.5,218.5C 53.9488,216.587 53.7821,214.587 54,212.5C 43.5501,203.684 33.3834,194.518 23.5,185C 21.2266,185.317 20.2266,186.817 20.5,189.5C 18.0523,189.915 16.7189,188.915 16.5,186.5C 18.893,181.712 20.7264,176.712 22,171.5C 23.1998,167.235 25.3665,166.569 28.5,169.5C 27.8333,170.833 27.1667,172.167 26.5,173.5C 39.0969,175.305 51.7635,176.639 64.5,177.5C 68.5434,177.232 72.2101,176.232 75.5,174.5C 74.7915,179.306 73.1249,183.639 70.5,187.5 Z"/></g>
<g><path style="opacity:1" fill="#e5e5e5" d="M 28.5,181.5 C 35.1856,181.527 41.8523,181.861 48.5,182.5C 47.4577,186.915 45.6243,190.915 43,194.5C 37.3156,190.975 32.4823,186.642 28.5,181.5 Z"/></g>
<g><path style="opacity:1" fill="#889ba3" d="M 388.5,164.5 C 389.955,169.473 390.955,174.473 391.5,179.5C 390.456,186.994 390.456,194.327 391.5,201.5C 390.167,202.833 388.833,204.167 387.5,205.5C 388.997,192.882 389.497,180.215 389,167.5C 385.151,171.346 380.984,174.846 376.5,178C 375.241,178.982 373.908,179.315 372.5,179C 378.137,174.374 383.47,169.541 388.5,164.5 Z"/></g>
<g><path style="opacity:1" fill="#4577a8" d="M 362.5,151.5 C 361.622,156.53 359.622,161.03 356.5,165C 352.914,166.108 349.247,166.608 345.5,166.5C 344.346,171.285 343.013,175.952 341.5,180.5C 344.607,178.758 347.941,177.425 351.5,176.5C 349.626,178.813 347.626,181.146 345.5,183.5C 343.167,185.5 340.833,187.5 338.5,189.5C 338.784,187.123 338.784,184.956 338.5,183C 336.241,183.439 333.908,183.939 331.5,184.5C 331.649,185.552 331.483,186.552 331,187.5C 328.293,190.045 325.46,192.379 322.5,194.5C 322.5,193.5 322.5,192.5 322.5,191.5C 319.813,191.336 317.146,191.503 314.5,192C 313.78,194.122 312.613,194.622 311,193.5C 310.516,191.087 310.85,188.754 312,186.5C 316.423,182.644 317.923,177.977 316.5,172.5C 316.182,169.519 317.182,167.185 319.5,165.5C 321.337,175.893 326.67,178.226 335.5,172.5C 335.5,174.833 335.5,177.167 335.5,179.5C 335.393,181.379 335.893,181.712 337,180.5C 340.167,174.833 343.333,169.167 346.5,163.5C 347.167,163.167 347.833,162.833 348.5,162.5C 349.836,163.423 351.17,163.923 352.5,164C 356.213,160.037 359.546,155.871 362.5,151.5 Z"/></g>
<g><path style="opacity:1" fill="#33659d" d="M 338.5,189.5 C 338.027,190.906 337.027,191.573 335.5,191.5C 331.148,193.341 327.481,196.175 324.5,200C 322.05,201.06 319.717,201.227 317.5,200.5C 319.114,198.544 320.781,196.544 322.5,194.5C 325.46,192.379 328.293,190.045 331,187.5C 331.483,186.552 331.649,185.552 331.5,184.5C 333.908,183.939 336.241,183.439 338.5,183C 338.784,184.956 338.784,187.123 338.5,189.5 Z"/></g>
<g><path style="opacity:1" fill="#d8e5e9" d="M 406.5,139.5 C 407.467,145.982 405.3,150.982 400,154.5C 398.632,155.993 398.465,157.493 399.5,159C 398.354,159.645 397.354,160.478 396.5,161.5C 395.167,164.5 395.167,167.5 396.5,170.5C 398.895,171.523 399.895,170.523 399.5,167.5C 403.074,166.908 405.074,168.408 405.5,172C 404.643,172.689 403.977,173.522 403.5,174.5C 406.049,181.436 406.049,188.436 403.5,195.5C 402.234,196.362 400.901,197.029 399.5,197.5C 401.723,193.049 403.39,188.382 404.5,183.5C 404.102,178.775 401.769,175.442 397.5,173.5C 397.167,173.667 396.833,173.833 396.5,174C 397.701,174.903 398.535,176.069 399,177.5C 399.667,181.5 399.667,185.5 399,189.5C 396.728,193.724 394.228,197.724 391.5,201.5C 390.456,194.327 390.456,186.994 391.5,179.5C 391.334,174.156 391.501,168.823 392,163.5C 396.267,158.623 399.767,153.29 402.5,147.5C 404.284,145.052 405.617,142.385 406.5,139.5 Z"/></g>
<g><path style="opacity:1" fill="#737373" d="M 70.5,187.5 C 70.5,188.833 70.5,190.167 70.5,191.5C 68.302,191.88 66.6354,191.213 65.5,189.5C 66.5832,189.539 67.5832,189.873 68.5,190.5C 69.1757,189.398 69.8423,188.398 70.5,187.5 Z"/></g>
<g><path style="opacity:1" fill="#4d6d91" d="M 399.5,197.5 C 396.5,200.833 393.5,204.167 390.5,207.5C 389.363,208.789 388.03,209.789 386.5,210.5C 385.652,209.375 384.652,209.375 383.5,210.5C 384.797,208.839 386.13,207.172 387.5,205.5C 388.833,204.167 390.167,202.833 391.5,201.5C 394.228,197.724 396.728,193.724 399,189.5C 399.667,185.5 399.667,181.5 399,177.5C 398.535,176.069 397.701,174.903 396.5,174C 396.833,173.833 397.167,173.667 397.5,173.5C 401.769,175.442 404.102,178.775 404.5,183.5C 403.39,188.382 401.723,193.049 399.5,197.5 Z"/></g>
<g><path style="opacity:1" fill="#1c1c1c" d="M 551.5,169.5 C 552.75,169.577 553.583,170.244 554,171.5C 557.697,183.431 561.864,195.098 566.5,206.5C 562.908,207.649 559.241,208.649 555.5,209.5C 553.061,208.622 552.228,206.955 553,204.5C 555.007,203.331 557.173,202.665 559.5,202.5C 558.467,195.227 555.967,188.561 552,182.5C 547.771,184.863 543.271,186.53 538.5,187.5C 539.468,192.866 541.135,198.032 543.5,203C 543.355,203.772 543.022,204.439 542.5,205C 541.234,205.309 540.067,205.809 539,206.5C 537.33,200.492 534.663,195.159 531,190.5C 525.297,192.62 519.797,195.12 514.5,198C 517.402,203.874 519.402,210.041 520.5,216.5C 523.578,215.798 526.578,214.798 529.5,213.5C 531.975,214.677 532.975,216.677 532.5,219.5C 528.191,220.825 523.857,222.158 519.5,223.5C 514.526,211.23 509.859,198.897 505.5,186.5C 507.288,186.215 508.955,186.548 510.5,187.5C 511.384,189.942 513.051,190.775 515.5,190C 526.598,185.282 537.932,180.949 549.5,177C 550.649,175.396 550.649,173.73 549.5,172C 550.056,170.989 550.722,170.156 551.5,169.5 Z"/></g>
<g><path style="opacity:1" fill="#5686b0" d="M 316.5,172.5 C 317.923,177.977 316.423,182.644 312,186.5C 310.85,188.754 310.516,191.087 311,193.5C 312.613,194.622 313.78,194.122 314.5,192C 317.146,191.503 319.813,191.336 322.5,191.5C 322.5,192.5 322.5,193.5 322.5,194.5C 320.781,196.544 319.114,198.544 317.5,200.5C 313.897,202.763 310.564,205.43 307.5,208.5C 308.244,205.05 306.91,203.384 303.5,203.5C 303.5,204.833 303.5,206.167 303.5,207.5C 300.615,207.806 297.948,207.473 295.5,206.5C 303.032,195.423 310.032,184.09 316.5,172.5 Z"/></g>
<g><path style="opacity:1" fill="#f3f5f7" d="M 338.5,258.5 C 337.737,257.732 336.737,257.232 335.5,257C 335.53,240.709 335.53,224.209 335.5,207.5C 337.548,205.102 339.381,202.436 341,199.5C 342.731,197.383 344.898,195.883 347.5,195C 348.772,193.693 349.772,192.193 350.5,190.5C 353.185,189.875 355.685,188.875 358,187.5C 359.649,188.898 360.982,188.564 362,186.5C 363.441,187.26 364.941,187.926 366.5,188.5C 367.386,189.325 367.719,190.325 367.5,191.5C 370.85,191.665 374.183,191.498 377.5,191C 378.45,188.09 380.45,186.923 383.5,187.5C 383.08,191.754 383.747,195.754 385.5,199.5C 385.167,200.167 384.833,200.833 384.5,201.5C 381.506,200.252 378.506,200.252 375.5,201.5C 378.086,202.48 380.753,202.813 383.5,202.5C 383.5,204.167 383.5,205.833 383.5,207.5C 379.5,207.5 375.5,207.5 371.5,207.5C 371.55,209.59 370.55,210.923 368.5,211.5C 367.534,213.396 367.201,215.396 367.5,217.5C 368.552,217.351 369.552,217.517 370.5,218C 366.458,218.347 362.792,219.68 359.5,222C 360.167,222.333 360.833,222.667 361.5,223C 358.183,223.498 354.85,223.665 351.5,223.5C 352.105,227.018 352.105,230.685 351.5,234.5C 352.791,235.778 354.791,236.445 357.5,236.5C 356.647,239.363 354.98,241.696 352.5,243.5C 351.509,247.445 351.176,251.445 351.5,255.5C 348.813,255.336 346.146,255.503 343.5,256C 344.833,257 344.833,258 343.5,259C 341.613,259.78 339.946,259.613 338.5,258.5 Z"/></g>
<g><path style="opacity:1" fill="#fbfcfa" d="M 345.5,183.5 C 344.296,185.734 343.13,188.067 342,190.5C 335.965,195.706 330.132,201.039 324.5,206.5C 328.107,207.489 331.774,207.823 335.5,207.5C 335.53,224.209 335.53,240.709 335.5,257C 336.737,257.232 337.737,257.732 338.5,258.5C 337.5,258.5 336.5,258.5 335.5,258.5C 335.833,262.668 335.833,267.001 335.5,271.5C 339.07,272.385 342.737,273.385 346.5,274.5C 340.528,275.33 334.528,275.83 328.5,276C 325.557,279.352 326.391,281.519 331,282.5C 332.703,281.3 334.203,281.633 335.5,283.5C 341.798,284.496 348.132,284.83 354.5,284.5C 352.735,285.461 350.735,285.795 348.5,285.5C 340.463,285.488 332.463,285.322 324.5,285C 325.716,286.74 327.382,287.74 329.5,288C 328.833,288.333 328.167,288.667 327.5,289C 338.01,289.007 348.51,288.507 359,287.5C 359.833,287.833 360.667,288.167 361.5,288.5C 356.744,295.561 352.077,302.561 347.5,309.5C 346.432,310.434 345.099,310.768 343.5,310.5C 332.993,311.415 322.827,310.082 313,306.5C 311.278,306.611 311.112,307.111 312.5,308C 315.521,309.18 318.521,310.346 321.5,311.5C 321.082,312.222 320.416,312.722 319.5,313C 324.044,313.147 328.377,313.98 332.5,315.5C 334.5,315.167 336.5,314.833 338.5,314.5C 340.03,314.64 341.03,315.307 341.5,316.5C 340.449,317.222 339.782,318.222 339.5,319.5C 336.515,321.756 333.015,323.089 329,323.5C 327.829,324.34 326.662,325.173 325.5,326C 327.271,326.535 327.604,327.369 326.5,328.5C 324.513,330.327 322.179,331.327 319.5,331.5C 319.719,330.325 319.386,329.325 318.5,328.5C 313.807,330.155 309.14,330.322 304.5,329C 303.663,327.989 303.33,326.822 303.5,325.5C 298.288,325.564 293.288,324.564 288.5,322.5C 287.52,325.086 287.187,327.753 287.5,330.5C 289.806,330.993 292.139,331.326 294.5,331.5C 294.36,333.124 295.027,334.29 296.5,335C 298.81,335.497 301.143,335.663 303.5,335.5C 303.662,337.527 303.495,339.527 303,341.5C 298.732,340.556 294.565,339.223 290.5,337.5C 287.822,338.502 285.489,337.835 283.5,335.5C 280.996,331.505 278.329,327.672 275.5,324C 273.3,323.536 270.967,323.036 268.5,322.5C 268.313,320.436 267.813,318.436 267,316.5C 262.626,315.625 260.126,312.958 259.5,308.5C 256.488,307.998 254.155,306.498 252.5,304C 249.854,303.503 247.187,303.336 244.5,303.5C 244.62,301.266 244.287,299.099 243.5,297C 244.65,293.545 245.983,290.212 247.5,287C 247.043,286.586 246.709,286.086 246.5,285.5C 250.967,281.899 253.3,277.233 253.5,271.5C 253.427,269.973 254.094,268.973 255.5,268.5C 259.043,268.128 261.21,266.128 262,262.5C 263.378,260.787 265.045,259.453 267,258.5C 267.483,257.552 267.649,256.552 267.5,255.5C 270.645,254.923 272.145,252.923 272,249.5C 274.454,247.559 276.287,245.225 277.5,242.5C 293.431,228.2 309.764,214.366 326.5,201C 329.754,197.917 332.754,194.751 335.5,191.5C 337.027,191.573 338.027,190.906 338.5,189.5C 340.833,187.5 343.167,185.5 345.5,183.5 Z"/></g>
<g><path style="opacity:1" fill="#406893" d="M 335.5,191.5 C 332.754,194.751 329.754,197.917 326.5,201C 309.764,214.366 293.431,228.2 277.5,242.5C 273.869,245.629 270.369,248.963 267,252.5C 262.923,257.73 259.09,263.064 255.5,268.5C 254.094,268.973 253.427,269.973 253.5,271.5C 251.684,273.118 250.351,275.118 249.5,277.5C 248.833,277.5 248.167,277.5 247.5,277.5C 252.51,269.646 257.343,261.646 262,253.5C 265.962,249.373 270.129,245.373 274.5,241.5C 275.386,240.675 275.719,239.675 275.5,238.5C 284.918,229.077 294.585,220.077 304.5,211.5C 305.833,210.833 306.833,209.833 307.5,208.5C 310.564,205.43 313.897,202.763 317.5,200.5C 319.717,201.227 322.05,201.06 324.5,200C 327.481,196.175 331.148,193.341 335.5,191.5 Z"/></g>
<g><path style="opacity:1" fill="#636363" d="M 19.5,220.5 C 16.4824,220.296 13.4824,219.963 10.5,219.5C 10.5,217.5 10.5,215.5 10.5,213.5C 9.04125,213.433 7.70792,213.766 6.5,214.5C 7.55213,212.744 9.21879,212.077 11.5,212.5C 11.5,214.5 11.5,216.5 11.5,218.5C 14.4282,218.565 17.0948,219.232 19.5,220.5 Z"/></g>
<g><path style="opacity:1" fill="#6599c9" d="M 304.5,211.5 C 294.585,220.077 284.918,229.077 275.5,238.5C 274.677,236.545 274.51,234.545 275,232.5C 277.198,230.379 279.698,228.712 282.5,227.5C 282.138,225.127 282.805,222.793 284.5,220.5C 286.657,219.21 288.99,218.376 291.5,218C 293.86,215.64 296.194,213.306 298.5,211C 300.488,210.82 302.488,210.986 304.5,211.5 Z"/></g>
<g><path style="opacity:1" fill="#daedce" d="M 135.5,242.5 C 135.167,242.5 134.833,242.5 134.5,242.5C 133.909,241.849 133.243,241.182 132.5,240.5C 136.831,237.506 138.165,233.506 136.5,228.5C 133.393,229.304 131.393,231.638 130.5,235.5C 128.068,229.301 130.234,225.968 137,225.5C 138.107,225.585 139.107,225.919 140,226.5C 140.667,230.167 140.667,233.833 140,237.5C 138.902,238.967 137.402,239.801 135.5,240C 136.598,240.77 136.598,241.603 135.5,242.5 Z"/></g>
<g><path style="opacity:1" fill="#1a1a1a" d="M 19.5,220.5 C 31.5011,222.833 43.5011,225.167 55.5,227.5C 55.9732,230.833 54.6399,233 51.5,234C 38.4065,238.379 25.4065,243.046 12.5,248C 23.0077,250.456 33.6743,252.622 44.5,254.5C 45.7133,254.253 46.38,253.586 46.5,252.5C 47.404,251.791 47.7373,250.791 47.5,249.5C 48.8333,249.5 50.1667,249.5 51.5,249.5C 50.3921,255.147 49.3921,260.814 48.5,266.5C 47.1667,266.5 45.8333,266.5 44.5,266.5C 44.5,264.5 44.5,262.5 44.5,260.5C 31.0723,257.531 17.4057,255.197 3.5,253.5C 3.5,254.833 3.5,256.167 3.5,257.5C 2.16667,257.5 0.833333,257.5 -0.5,257.5C -0.5,255.5 -0.5,253.5 -0.5,251.5C 0.468218,249.393 0.801552,247.059 0.5,244.5C 14.3139,240.463 27.9805,235.963 41.5,231C 31.9189,228.736 22.2522,226.903 12.5,225.5C 9.51096,225.801 8.17763,227.468 8.5,230.5C 7.16667,230.5 5.83333,230.5 4.5,230.5C 4.7012,225.093 5.36786,219.76 6.5,214.5C 7.70792,213.766 9.04125,213.433 10.5,213.5C 10.5,215.5 10.5,217.5 10.5,219.5C 13.4824,219.963 16.4824,220.296 19.5,220.5 Z"/></g>
<g><path style="opacity:1" fill="#568628" d="M 134.5,242.5 C 134.167,243.167 133.833,243.833 133.5,244.5C 132.575,246.884 130.742,247.884 128,247.5C 125.224,247.233 122.724,246.233 120.5,244.5C 122.22,243.066 124.22,242.233 126.5,242C 127.252,241.329 127.586,240.496 127.5,239.5C 129.201,238.789 130.201,237.455 130.5,235.5C 131.393,231.638 133.393,229.304 136.5,228.5C 138.165,233.506 136.831,237.506 132.5,240.5C 133.243,241.182 133.909,241.849 134.5,242.5 Z"/></g>
<g><path style="opacity:1" fill="#6f9cbe" d="M 307.5,208.5 C 306.833,209.833 305.833,210.833 304.5,211.5C 302.488,210.986 300.488,210.82 298.5,211C 296.194,213.306 293.86,215.64 291.5,218C 288.99,218.376 286.657,219.21 284.5,220.5C 282.805,222.793 282.138,225.127 282.5,227.5C 279.698,228.712 277.198,230.379 275,232.5C 274.51,234.545 274.677,236.545 275.5,238.5C 275.719,239.675 275.386,240.675 274.5,241.5C 270.129,245.373 265.962,249.373 262,253.5C 257.343,261.646 252.51,269.646 247.5,277.5C 246.566,276.432 246.232,275.099 246.5,273.5C 248.815,265.864 251.981,258.53 256,251.5C 268.316,235.688 281.483,220.688 295.5,206.5C 297.948,207.473 300.615,207.806 303.5,207.5C 303.5,206.167 303.5,204.833 303.5,203.5C 306.91,203.384 308.244,205.05 307.5,208.5 Z"/></g>
<g><path style="opacity:1" fill="#56748c" d="M 391.5,223.5 C 396.739,228.103 397.739,233.436 394.5,239.5C 392.457,242.051 390.124,244.551 387.5,247C 384.328,248.752 381.328,250.752 378.5,253C 373.944,254.566 369.61,256.399 365.5,258.5C 364.833,258.5 364.167,258.5 363.5,258.5C 356.285,260.412 348.951,261.245 341.5,261C 356.238,259.31 369.905,254.643 382.5,247C 389.157,241.662 392.323,234.829 392,226.5C 390.454,225.497 390.287,224.497 391.5,223.5 Z"/></g>
<g><path style="opacity:1" fill="#cde5bb" d="M 151.5,236.5 C 150.833,237.833 149.833,238.833 148.5,239.5C 146.007,241.658 144.34,244.324 143.5,247.5C 140.489,246.331 137.822,244.664 135.5,242.5C 142.025,245.344 145.691,243.344 146.5,236.5C 148.167,236.5 149.833,236.5 151.5,236.5 Z"/></g>
<g><path style="opacity:1" fill="#498912" d="M 157.5,239.5 C 155.883,240.589 155.05,242.256 155,244.5C 152.729,247.463 149.896,248.13 146.5,246.5C 148.171,244.49 148.838,242.157 148.5,239.5C 149.833,238.833 150.833,237.833 151.5,236.5C 152.167,236.5 152.5,236.167 152.5,235.5C 154.479,234.188 156.145,232.521 157.5,230.5C 158.803,233.645 158.803,236.645 157.5,239.5 Z"/></g>
<g><path style="opacity:1" fill="#6f8a5b" d="M 134.5,242.5 C 134.833,242.5 135.167,242.5 135.5,242.5C 137.822,244.664 140.489,246.331 143.5,247.5C 143.5,248.5 143.5,249.5 143.5,250.5C 140.429,248.102 137.095,246.102 133.5,244.5C 133.833,243.833 134.167,243.167 134.5,242.5 Z"/></g>
<g><path style="opacity:1" fill="#737373" d="M 51.5,249.5 C 50.1667,249.5 48.8333,249.5 47.5,249.5C 47.7373,250.791 47.404,251.791 46.5,252.5C 46.5,251.167 46.5,249.833 46.5,248.5C 48.4147,248.216 50.0813,248.549 51.5,249.5 Z"/></g>
<g><path style="opacity:1" fill="#ddeed5" d="M 127.5,239.5 C 127.586,240.496 127.252,241.329 126.5,242C 124.22,242.233 122.22,243.066 120.5,244.5C 122.724,246.233 125.224,247.233 128,247.5C 130.742,247.884 132.575,246.884 133.5,244.5C 137.095,246.102 140.429,248.102 143.5,250.5C 145.078,251.066 146.412,252.066 147.5,253.5C 144.634,255.432 141.634,257.099 138.5,258.5C 138.786,256.723 139.453,255.056 140.5,253.5C 140.32,252.446 139.987,251.446 139.5,250.5C 134.557,250.208 129.557,250.042 124.5,250C 123.405,248.325 121.905,247.158 120,246.5C 119.665,241.338 122.165,239.005 127.5,239.5 Z"/></g>
<g><path style="opacity:1" fill="#8a8a8a" d="M 525.5,246.5 C 526.919,245.549 528.585,245.216 530.5,245.5C 530.5,247.5 530.5,249.5 530.5,251.5C 529.549,250.081 529.216,248.415 529.5,246.5C 528.167,246.5 526.833,246.5 525.5,246.5 Z"/></g>
<g><path style="opacity:1" fill="#646464" d="M 571.5,242.5 C 571.5,244.833 571.5,247.167 571.5,249.5C 563.521,250.224 555.521,250.558 547.5,250.5C 554.995,249.549 562.661,248.882 570.5,248.5C 570.205,246.265 570.539,244.265 571.5,242.5 Z"/></g>
<g><path style="opacity:1" fill="#deeecf" d="M 159.5,261.5 C 158.196,260.013 157.03,258.346 156,256.5C 153.691,255.025 151.524,253.358 149.5,251.5C 151.193,250.772 152.693,249.772 154,248.5C 156.287,245.928 157.453,242.928 157.5,239.5C 158.803,236.645 158.803,233.645 157.5,230.5C 156.145,232.521 154.479,234.188 152.5,235.5C 151.771,232.02 150.771,228.686 149.5,225.5C 151.822,227.412 154.488,228.745 157.5,229.5C 157.201,227.396 157.534,225.396 158.5,223.5C 159.497,231.138 159.831,238.804 159.5,246.5C 155.775,246.78 154.608,248.78 156,252.5C 158.498,254.387 159.664,257.387 159.5,261.5 Z"/></g>
<g><path style="opacity:1" fill="#daeaf1" d="M 277.5,242.5 C 276.287,245.225 274.454,247.559 272,249.5C 272.145,252.923 270.645,254.923 267.5,255.5C 267.649,256.552 267.483,257.552 267,258.5C 265.045,259.453 263.378,260.787 262,262.5C 261.21,266.128 259.043,268.128 255.5,268.5C 259.09,263.064 262.923,257.73 267,252.5C 270.369,248.963 273.869,245.629 277.5,242.5 Z"/></g>
<g><path style="opacity:1" fill="#537d2c" d="M 148.5,239.5 C 148.838,242.157 148.171,244.49 146.5,246.5C 149.896,248.13 152.729,247.463 155,244.5C 155.05,242.256 155.883,240.589 157.5,239.5C 157.453,242.928 156.287,245.928 154,248.5C 152.693,249.772 151.193,250.772 149.5,251.5C 151.524,253.358 153.691,255.025 156,256.5C 157.03,258.346 158.196,260.013 159.5,261.5C 159.5,261.833 159.5,262.167 159.5,262.5C 160.11,263.391 160.443,264.391 160.5,265.5C 159.514,269.97 159.181,274.637 159.5,279.5C 157.5,279.5 155.5,279.5 153.5,279.5C 150.167,279.5 146.833,279.5 143.5,279.5C 143.5,279.167 143.5,278.833 143.5,278.5C 148.517,277.352 153.517,277.352 158.5,278.5C 158.666,273.489 158.499,268.489 158,263.5C 156.426,262.016 155.093,260.349 154,258.5C 154.266,261.901 152.766,263.567 149.5,263.5C 153.442,254.771 151.442,252.771 143.5,257.5C 143.5,258.5 143.5,259.5 143.5,260.5C 141.5,260.5 139.5,260.5 137.5,260.5C 137.833,259.833 138.167,259.167 138.5,258.5C 141.634,257.099 144.634,255.432 147.5,253.5C 146.412,252.066 145.078,251.066 143.5,250.5C 143.5,249.5 143.5,248.5 143.5,247.5C 144.34,244.324 146.007,241.658 148.5,239.5 Z"/></g>
<g><path style="opacity:1" fill="#48850f" d="M 149.5,263.5 C 142.833,266.156 136.166,265.989 129.5,263C 132.08,261.856 134.747,261.022 137.5,260.5C 139.5,260.5 141.5,260.5 143.5,260.5C 143.5,259.5 143.5,258.5 143.5,257.5C 151.442,252.771 153.442,254.771 149.5,263.5 Z"/></g>
<g><path style="opacity:1" fill="#def2cc" d="M 179.5,260.5 C 179.167,261.5 178.5,262.167 177.5,262.5C 171.951,262.596 166.785,263.929 162,266.5C 161.235,266.43 160.735,266.097 160.5,265.5C 160.443,264.391 160.11,263.391 159.5,262.5C 166.054,260.953 172.721,260.287 179.5,260.5 Z"/></g>
<g><path style="opacity:1" fill="#eff5f0" d="M 363.5,258.5 C 364.167,258.5 364.833,258.5 365.5,258.5C 367.048,258.821 367.715,259.821 367.5,261.5C 371.35,261.701 372.35,263.534 370.5,267C 369.552,267.483 368.552,267.649 367.5,267.5C 367.5,268.833 367.5,270.167 367.5,271.5C 370.774,271.628 370.941,272.961 368,275.5C 367.506,277.134 367.34,278.801 367.5,280.5C 363.313,282.228 358.98,283.562 354.5,284.5C 348.132,284.83 341.798,284.496 335.5,283.5C 334.203,281.633 332.703,281.3 331,282.5C 326.391,281.519 325.557,279.352 328.5,276C 334.528,275.83 340.528,275.33 346.5,274.5C 342.737,273.385 339.07,272.385 335.5,271.5C 342.111,271.139 348.611,271.806 355,273.5C 357.3,273.322 359.134,272.322 360.5,270.5C 357.572,269.516 354.572,269.183 351.5,269.5C 351.5,267.5 351.5,265.5 351.5,263.5C 356.879,264.698 360.879,263.031 363.5,258.5 Z"/></g>
<g><path style="opacity:1" fill="#e9f2f3" d="M 387.5,139.5 C 387.851,143.684 388.518,147.684 389.5,151.5C 389.706,155.898 389.373,160.232 388.5,164.5C 383.47,169.541 378.137,174.374 372.5,179C 373.908,179.315 375.241,178.982 376.5,178C 380.984,174.846 385.151,171.346 389,167.5C 389.497,180.215 388.997,192.882 387.5,205.5C 386.13,207.172 384.797,208.839 383.5,210.5C 379.383,213.068 375.383,215.902 371.5,219C 365.737,222.548 359.737,225.548 353.5,228C 356.57,227.985 359.57,227.318 362.5,226C 369.357,222.408 376.024,218.574 382.5,214.5C 384.017,214.489 385.184,213.823 386,212.5C 385.897,223.118 384.063,233.452 380.5,243.5C 381.002,244.521 381.668,244.688 382.5,244C 384.122,238.903 385.622,233.736 387,228.5C 387.598,221.372 388.765,214.372 390.5,207.5C 393.5,204.167 396.5,200.833 399.5,197.5C 399.657,198.873 399.49,200.207 399,201.5C 396.815,202.928 394.815,204.595 393,206.5C 391.783,212.101 391.283,217.768 391.5,223.5C 390.287,224.497 390.454,225.497 392,226.5C 392.323,234.829 389.157,241.662 382.5,247C 369.905,254.643 356.238,259.31 341.5,261C 348.951,261.245 356.285,260.412 363.5,258.5C 360.879,263.031 356.879,264.698 351.5,263.5C 351.5,265.5 351.5,267.5 351.5,269.5C 354.572,269.183 357.572,269.516 360.5,270.5C 359.134,272.322 357.3,273.322 355,273.5C 348.611,271.806 342.111,271.139 335.5,271.5C 335.833,267.001 335.833,262.668 335.5,258.5C 336.5,258.5 337.5,258.5 338.5,258.5C 339.946,259.613 341.613,259.78 343.5,259C 344.833,258 344.833,257 343.5,256C 346.146,255.503 348.813,255.336 351.5,255.5C 351.176,251.445 351.509,247.445 352.5,243.5C 354.98,241.696 356.647,239.363 357.5,236.5C 354.791,236.445 352.791,235.778 351.5,234.5C 352.105,230.685 352.105,227.018 351.5,223.5C 354.85,223.665 358.183,223.498 361.5,223C 360.833,222.667 360.167,222.333 359.5,222C 362.792,219.68 366.458,218.347 370.5,218C 369.552,217.517 368.552,217.351 367.5,217.5C 367.201,215.396 367.534,213.396 368.5,211.5C 370.55,210.923 371.55,209.59 371.5,207.5C 375.5,207.5 379.5,207.5 383.5,207.5C 383.5,205.833 383.5,204.167 383.5,202.5C 380.753,202.813 378.086,202.48 375.5,201.5C 378.506,200.252 381.506,200.252 384.5,201.5C 384.833,200.833 385.167,200.167 385.5,199.5C 383.747,195.754 383.08,191.754 383.5,187.5C 380.45,186.923 378.45,188.09 377.5,191C 374.183,191.498 370.85,191.665 367.5,191.5C 367.719,190.325 367.386,189.325 366.5,188.5C 364.941,187.926 363.441,187.26 362,186.5C 360.982,188.564 359.649,188.898 358,187.5C 355.685,188.875 353.185,189.875 350.5,190.5C 349.772,192.193 348.772,193.693 347.5,195C 344.898,195.883 342.731,197.383 341,199.5C 339.381,202.436 337.548,205.102 335.5,207.5C 331.774,207.823 328.107,207.489 324.5,206.5C 330.132,201.039 335.965,195.706 342,190.5C 343.13,188.067 344.296,185.734 345.5,183.5C 347.626,181.146 349.626,178.813 351.5,176.5C 361.913,166.084 371.247,154.751 379.5,142.5C 381.549,139.117 384.216,138.117 387.5,139.5 Z"/></g>
<g><path style="opacity:1" fill="#b9c8cd" d="M 390.5,207.5 C 388.765,214.372 387.598,221.372 387,228.5C 385.622,233.736 384.122,238.903 382.5,244C 381.668,244.688 381.002,244.521 380.5,243.5C 384.063,233.452 385.897,223.118 386,212.5C 385.184,213.823 384.017,214.489 382.5,214.5C 383.5,212.833 384.833,211.5 386.5,210.5C 388.03,209.789 389.363,208.789 390.5,207.5 Z"/></g>
<g><path style="opacity:1" fill="#6c8093" d="M 386.5,210.5 C 384.833,211.5 383.5,212.833 382.5,214.5C 376.024,218.574 369.357,222.408 362.5,226C 359.57,227.318 356.57,227.985 353.5,228C 359.737,225.548 365.737,222.548 371.5,219C 375.383,215.902 379.383,213.068 383.5,210.5C 384.652,209.375 385.652,209.375 386.5,210.5 Z"/></g>
<g><path style="opacity:1" fill="#4e8d18" d="M 190.5,257.5 C 189.563,260.269 188.396,262.936 187,265.5C 183.338,269.995 179.504,274.328 175.5,278.5C 173.708,278.366 172.042,278.699 170.5,279.5C 169.261,278.788 168.761,277.788 169,276.5C 171.418,275.355 173.585,273.855 175.5,272C 173.167,271.333 170.833,271.333 168.5,272C 167.655,275.032 166.322,275.199 164.5,272.5C 167.766,267.543 172.099,264.209 177.5,262.5C 178.5,262.167 179.167,261.5 179.5,260.5C 183.284,259.679 186.951,258.679 190.5,257.5 Z"/></g>
<g><path style="opacity:1" fill="#daeec2" d="M 190.5,257.5 C 191.139,258.097 191.472,258.93 191.5,260C 189.407,263.277 187.74,266.777 186.5,270.5C 184.4,273.104 182.067,275.604 179.5,278C 178.207,278.49 176.873,278.657 175.5,278.5C 179.504,274.328 183.338,269.995 187,265.5C 188.396,262.936 189.563,260.269 190.5,257.5 Z"/></g>
<g><path style="opacity:1" fill="#d8ebc6" d="M 138.5,258.5 C 138.167,259.167 137.833,259.833 137.5,260.5C 134.747,261.022 132.08,261.856 129.5,263C 136.166,265.989 142.833,266.156 149.5,263.5C 152.766,263.567 154.266,261.901 154,258.5C 155.093,260.349 156.426,262.016 158,263.5C 158.499,268.489 158.666,273.489 158.5,278.5C 153.517,277.352 148.517,277.352 143.5,278.5C 146.091,277.009 147.091,274.675 146.5,271.5C 147.833,271.5 149.167,271.5 150.5,271.5C 150.062,275.908 152.062,277.575 156.5,276.5C 159.394,264.706 155.728,261.706 145.5,267.5C 139.528,266.569 133.528,265.903 127.5,265.5C 127.215,263.712 127.548,262.045 128.5,260.5C 131.757,259.449 135.09,258.782 138.5,258.5 Z"/></g>
<g><path style="opacity:1" fill="#d2e4eb" d="M 394.5,239.5 C 393.231,246.086 389.564,250.42 383.5,252.5C 378.232,255.901 377.232,260.234 380.5,265.5C 379.44,273.233 375.107,278.233 367.5,280.5C 367.34,278.801 367.506,277.134 368,275.5C 370.941,272.961 370.774,271.628 367.5,271.5C 367.5,270.167 367.5,268.833 367.5,267.5C 368.552,267.649 369.552,267.483 370.5,267C 372.35,263.534 371.35,261.701 367.5,261.5C 367.715,259.821 367.048,258.821 365.5,258.5C 369.61,256.399 373.944,254.566 378.5,253C 381.328,250.752 384.328,248.752 387.5,247C 390.124,244.551 392.457,242.051 394.5,239.5 Z"/></g>
<g><path style="opacity:1" fill="#171717" d="M 48.5,289.5 C 49.7683,295.175 49.7683,300.842 48.5,306.5C 47.6805,308.812 46.8471,311.146 46,313.5C 36.5931,323.965 25.0931,327.132 11.5,323C 6.62283,319.624 2.62283,315.457 -0.5,310.5C -0.5,302.167 -0.5,293.833 -0.5,285.5C 6.97125,273.775 17.6379,269.608 31.5,273C 39.6781,276.013 45.3448,281.513 48.5,289.5 Z"/></g>
<g><path style="opacity:1" fill="#181818" d="M 571.5,242.5 C 573.144,242.286 574.644,242.62 576,243.5C 576.499,248.823 576.666,254.156 576.5,259.5C 565.094,263.198 554.094,268.032 543.5,274C 554.829,277.664 566.162,281.33 577.5,285C 578.859,290.039 579.526,295.205 579.5,300.5C 577.833,300.5 576.167,300.5 574.5,300.5C 574.5,298.833 574.5,297.167 574.5,295.5C 572.696,294.838 570.696,294.505 568.5,294.5C 559.996,294.961 551.662,295.628 543.5,296.5C 542.5,296.5 541.5,296.5 540.5,296.5C 537.833,296.5 535.167,296.5 532.5,296.5C 532.5,298.833 532.5,301.167 532.5,303.5C 531.167,303.5 529.833,303.5 528.5,303.5C 528.818,298.968 528.485,294.634 527.5,290.5C 527.5,288.833 527.5,287.167 527.5,285.5C 529.167,285.5 530.833,285.5 532.5,285.5C 532.5,287.167 532.5,288.833 532.5,290.5C 545.208,290.308 557.875,289.475 570.5,288C 557.314,284.737 544.314,280.903 531.5,276.5C 531.323,274.019 532.323,272.186 534.5,271C 544.696,266.795 554.696,262.295 564.5,257.5C 565.473,257.013 566.473,256.513 567.5,256C 555.971,255.371 544.637,255.871 533.5,257.5C 532.5,257.5 531.5,257.5 530.5,257.5C 530.5,259.833 530.5,262.167 530.5,264.5C 528.856,264.714 527.356,264.38 526,263.5C 525.501,257.843 525.334,252.176 525.5,246.5C 526.833,246.5 528.167,246.5 529.5,246.5C 529.216,248.415 529.549,250.081 530.5,251.5C 536.106,250.593 541.773,250.26 547.5,250.5C 555.521,250.558 563.521,250.224 571.5,249.5C 571.5,247.167 571.5,244.833 571.5,242.5 Z"/></g>
<g><path style="opacity:1" fill="#979797" d="M 564.5,257.5 C 554.346,257.06 544.013,257.06 533.5,257.5C 544.637,255.871 555.971,255.371 567.5,256C 566.473,256.513 565.473,257.013 564.5,257.5 Z"/></g>
<g><path style="opacity:1" fill="#ececec" d="M 4.5,306.5 C 3.23884,301.175 3.23884,295.842 4.5,290.5C 6.98884,283.523 11.9888,279.69 19.5,279C 29.9496,277.642 37.7829,281.475 43,290.5C 45.7454,310.205 37.2454,319.372 17.5,318C 11.1102,316.441 6.77688,312.608 4.5,306.5 Z"/></g>
<g><path style="opacity:1" fill="#d0e4b7" d="M 170.5,279.5 C 172.042,278.699 173.708,278.366 175.5,278.5C 172.429,281.713 168.762,282.379 164.5,280.5C 164.585,282.929 165.585,284.929 167.5,286.5C 167.043,287.298 166.376,287.631 165.5,287.5C 162.176,284.855 161.176,281.522 162.5,277.5C 164.868,279.223 167.534,279.89 170.5,279.5 Z"/></g>
<g><path style="opacity:1" fill="#abb7b7" d="M 208.5,270.5 C 209.5,271.167 210.5,271.833 211.5,272.5C 200.153,272.666 191.82,277.666 186.5,287.5C 185.577,288.303 184.577,288.47 183.5,288C 189.126,278.196 197.459,272.362 208.5,270.5 Z"/></g>
<g><path style="opacity:1" fill="#5c7299" d="M 380.5,265.5 C 382.554,271.086 381.221,275.753 376.5,279.5C 372.796,281.562 369.13,283.562 365.5,285.5C 355.584,287.329 345.584,287.829 335.5,287C 340.019,286.825 344.353,286.325 348.5,285.5C 350.735,285.795 352.735,285.461 354.5,284.5C 358.98,283.562 363.313,282.228 367.5,280.5C 375.107,278.233 379.44,273.233 380.5,265.5 Z"/></g>
<g><path style="opacity:1" fill="#44741a" d="M 177.5,262.5 C 172.099,264.209 167.766,267.543 164.5,272.5C 166.322,275.199 167.655,275.032 168.5,272C 170.833,271.333 173.167,271.333 175.5,272C 173.585,273.855 171.418,275.355 169,276.5C 168.761,277.788 169.261,278.788 170.5,279.5C 167.534,279.89 164.868,279.223 162.5,277.5C 161.176,281.522 162.176,284.855 165.5,287.5C 167.855,291.855 171.188,295.188 175.5,297.5C 175.163,300.336 173.829,301.002 171.5,299.5C 170.5,298.833 169.5,298.167 168.5,297.5C 166.417,294.349 164.084,291.349 161.5,288.5C 159.563,289.954 157.897,291.621 156.5,293.5C 151.968,293.818 147.634,293.485 143.5,292.5C 146.448,292.777 149.281,292.444 152,291.5C 152.617,290.551 152.451,289.718 151.5,289C 148.711,288.759 146.044,288.092 143.5,287C 148.369,286.164 153.036,284.831 157.5,283C 155.676,282.34 154.343,281.173 153.5,279.5C 155.5,279.5 157.5,279.5 159.5,279.5C 159.181,274.637 159.514,269.97 160.5,265.5C 160.735,266.097 161.235,266.43 162,266.5C 166.785,263.929 171.951,262.596 177.5,262.5 Z"/></g>
<g><path style="opacity:1" fill="#fbfdfb" d="M 237.5,326.5 C 238.363,327.463 239.03,327.463 239.5,326.5C 234.671,321.519 233.004,315.685 234.5,309C 237.095,305.039 240.429,304.372 244.5,307C 246.901,309.062 249.567,310.729 252.5,312C 261.525,322.024 270.858,331.69 280.5,341C 284.342,343.002 288.342,344.502 292.5,345.5C 295.074,346.881 297.574,348.548 300,350.5C 305.169,356.479 309.669,362.813 313.5,369.5C 313.351,372.607 313.851,375.607 315,378.5C 316.164,378.835 317.497,378.835 319,378.5C 319.212,380.78 320.045,382.78 321.5,384.5C 320.833,384.833 320.167,385.167 319.5,385.5C 321.99,387.153 324.157,389.153 326,391.5C 326.49,392.793 326.657,394.127 326.5,395.5C 324.409,395.318 322.409,395.652 320.5,396.5C 319.614,397.325 319.281,398.325 319.5,399.5C 322.167,399.5 324.833,399.5 327.5,399.5C 327.98,403.306 326.98,406.639 324.5,409.5C 322.955,410.452 321.288,410.785 319.5,410.5C 317.989,409.042 316.989,407.209 316.5,405C 315.207,404.51 313.873,404.343 312.5,404.5C 312.123,396.266 308.123,391.6 300.5,390.5C 299.738,389.372 299.071,388.205 298.5,387C 296.167,386.667 293.833,386.333 291.5,386C 292.252,385.329 292.586,384.496 292.5,383.5C 289.541,378.417 286.207,373.583 282.5,369C 278.749,367.89 275.083,366.724 271.5,365.5C 271.52,363.857 270.853,362.524 269.5,361.5C 263.205,360.404 256.872,359.57 250.5,359C 243.497,354.642 236.164,350.976 228.5,348C 222.664,342.203 216.498,336.703 210,331.5C 208.202,325.822 206.369,320.155 204.5,314.5C 203.719,315.729 203.219,317.062 203,318.5C 201.961,317.756 201.461,316.756 201.5,315.5C 202.659,311.786 201.492,308.786 198,306.5C 197.383,305.551 197.549,304.718 198.5,304C 191.973,300.448 189.64,294.948 191.5,287.5C 193.833,287.5 196.167,287.5 198.5,287.5C 200.5,287.5 202.5,287.5 204.5,287.5C 205.575,283.062 203.908,281.062 199.5,281.5C 199.389,280.883 199.056,280.383 198.5,280C 199.833,279.333 201.167,278.667 202.5,278C 201.833,277.667 201.167,277.333 200.5,277C 202.035,276.504 203.535,276.67 205,277.5C 209.297,274.691 213.13,275.358 216.5,279.5C 218.043,282.39 220.376,284.057 223.5,284.5C 224.163,287.821 224.83,291.154 225.5,294.5C 223.595,299.282 223.095,304.282 224,309.5C 226.646,312.266 227.146,315.433 225.5,319C 227.134,319.494 228.801,319.66 230.5,319.5C 230.523,321.927 231.023,324.26 232,326.5C 233.64,327.125 235.473,327.125 237.5,326.5 Z"/></g>
<g><path style="opacity:1" fill="#4d8d14" d="M 143.5,279.5 C 146.833,279.5 150.167,279.5 153.5,279.5C 154.343,281.173 155.676,282.34 157.5,283C 153.036,284.831 148.369,286.164 143.5,287C 146.044,288.092 148.711,288.759 151.5,289C 152.451,289.718 152.617,290.551 152,291.5C 149.281,292.444 146.448,292.777 143.5,292.5C 138.276,289.957 133.276,286.957 128.5,283.5C 127.614,282.675 127.281,281.675 127.5,280.5C 133.026,280.821 138.36,280.488 143.5,279.5 Z"/></g>
<g><path style="opacity:1" fill="#d6ecba" d="M 168.5,297.5 C 165.063,297.23 163.063,295.397 162.5,292C 160.843,291.275 159.843,291.775 159.5,293.5C 158.5,293.5 157.5,293.5 156.5,293.5C 157.897,291.621 159.563,289.954 161.5,288.5C 164.084,291.349 166.417,294.349 168.5,297.5 Z"/></g>
<g><path style="opacity:1" fill="#5d768e" d="M 208.5,270.5 C 214.513,270.499 219.847,272.333 224.5,276C 226.333,277.833 228.167,279.667 230,281.5C 233.493,285.813 236.326,290.479 238.5,295.5C 241.195,288.123 243.862,280.789 246.5,273.5C 246.232,275.099 246.566,276.432 247.5,277.5C 248.167,277.5 248.833,277.5 249.5,277.5C 245.107,284.291 241.773,291.625 239.5,299.5C 238.5,300.833 237.5,300.833 236.5,299.5C 234.039,292.578 230.539,286.244 226,280.5C 222.218,275.876 217.385,273.209 211.5,272.5C 210.5,271.833 209.5,271.167 208.5,270.5 Z"/></g>
<g><path style="opacity:1" fill="#a0a0a0" d="M 574.5,295.5 C 564.183,296.226 553.85,296.56 543.5,296.5C 551.662,295.628 559.996,294.961 568.5,294.5C 570.696,294.505 572.696,294.838 574.5,295.5 Z"/></g>
<g><path style="opacity:1" fill="#7b7b7b" d="M 4.5,290.5 C 3.23884,295.842 3.23884,301.175 4.5,306.5C 2.96656,304.366 2.29989,301.866 2.5,299C 2.36029,295.85 3.02695,293.017 4.5,290.5 Z"/></g>
<g><path style="opacity:1" fill="#e6efe1" d="M 143.5,278.5 C 143.5,278.833 143.5,279.167 143.5,279.5C 138.36,280.488 133.026,280.821 127.5,280.5C 127.281,281.675 127.614,282.675 128.5,283.5C 133.276,286.957 138.276,289.957 143.5,292.5C 147.634,293.485 151.968,293.818 156.5,293.5C 157.5,293.5 158.5,293.5 159.5,293.5C 158.665,294.943 157.332,295.943 155.5,296.5C 156.641,297.425 156.641,298.259 155.5,299C 157.433,299.251 159.266,299.751 161,300.5C 161.27,301.932 160.604,302.932 159,303.5C 156.923,302.042 154.59,301.376 152,301.5C 148.927,301.481 146.093,302.147 143.5,303.5C 143.5,302.167 143.5,300.833 143.5,299.5C 144.873,299.657 146.207,299.49 147.5,299C 145.009,298.374 145.009,297.541 147.5,296.5C 145.527,295.669 143.527,295.502 141.5,296C 141.833,295.667 142.167,295.333 142.5,295C 139.311,294.158 136.311,292.825 133.5,291C 132.663,289.989 132.33,288.822 132.5,287.5C 129.776,286.605 127.109,286.272 124.5,286.5C 124.02,284.051 123.02,281.885 121.5,280C 123.421,279.64 125.088,278.806 126.5,277.5C 132.104,278.454 137.771,278.788 143.5,278.5 Z"/></g>
<g><path style="opacity:1" fill="#7a7a7a" d="M 48.5,289.5 C 49.9908,292.186 50.6575,295.186 50.5,298.5C 50.7135,301.527 50.0468,304.193 48.5,306.5C 49.7683,300.842 49.7683,295.175 48.5,289.5 Z"/></g>
<g><path style="opacity:1" fill="#ccaa5c" d="M 187.5,294.5 C 186.883,294.389 186.383,294.056 186,293.5C 180.977,298.265 175.477,302.432 169.5,306C 170.448,306.483 171.448,306.649 172.5,306.5C 164.99,308.459 164.49,307.125 171,302.5C 171.483,301.552 171.649,300.552 171.5,299.5C 173.829,301.002 175.163,300.336 175.5,297.5C 178.18,294.987 181.013,292.654 184,290.5C 186.074,291.072 187.24,292.405 187.5,294.5 Z"/></g>
<g><path style="opacity:1" fill="#808080" d="M 540.5,296.5 C 538.393,297.468 536.059,297.802 533.5,297.5C 533.795,299.735 533.461,301.735 532.5,303.5C 532.5,301.167 532.5,298.833 532.5,296.5C 535.167,296.5 537.833,296.5 540.5,296.5 Z"/></g>
<g><path style="opacity:1" fill="#bfd1da" d="M 348.5,285.5 C 344.353,286.325 340.019,286.825 335.5,287C 345.584,287.829 355.584,287.329 365.5,285.5C 363.46,289.026 363.127,292.692 364.5,296.5C 362.194,304.858 356.527,309.191 347.5,309.5C 352.077,302.561 356.744,295.561 361.5,288.5C 360.667,288.167 359.833,287.833 359,287.5C 348.51,288.507 338.01,289.007 327.5,289C 328.167,288.667 328.833,288.333 329.5,288C 327.382,287.74 325.716,286.74 324.5,285C 332.463,285.322 340.463,285.488 348.5,285.5 Z"/></g>
<g><path style="opacity:1" fill="#ad7d1c" d="M 187.5,294.5 C 188.587,299.227 186.92,302.227 182.5,303.5C 179.612,302.99 177.279,303.656 175.5,305.5C 175.5,305.833 175.5,306.167 175.5,306.5C 174.5,306.5 173.5,306.5 172.5,306.5C 171.448,306.649 170.448,306.483 169.5,306C 175.477,302.432 180.977,298.265 186,293.5C 186.383,294.056 186.883,294.389 187.5,294.5 Z"/></g>
<g><path style="opacity:1" fill="#ababab" d="M 527.5,290.5 C 528.485,294.634 528.818,298.968 528.5,303.5C 529.833,303.5 531.167,303.5 532.5,303.5C 531.081,304.451 529.415,304.784 527.5,304.5C 527.5,299.833 527.5,295.167 527.5,290.5 Z"/></g>
<g><path style="opacity:1" fill="#536e87" d="M 364.5,296.5 C 366.399,304.144 363.399,308.977 355.5,311C 353.187,311.662 350.854,312.162 348.5,312.5C 344.154,312.666 339.821,312.499 335.5,312C 338.365,311.817 341.031,311.317 343.5,310.5C 345.099,310.768 346.432,310.434 347.5,309.5C 356.527,309.191 362.194,304.858 364.5,296.5 Z"/></g>
<g><path style="opacity:1" fill="#8093a3" d="M 343.5,310.5 C 341.031,311.317 338.365,311.817 335.5,312C 339.821,312.499 344.154,312.666 348.5,312.5C 339.583,313.783 330.583,313.449 321.5,311.5C 318.521,310.346 315.521,309.18 312.5,308C 311.112,307.111 311.278,306.611 313,306.5C 322.827,310.082 332.993,311.415 343.5,310.5 Z"/></g>
<g><path style="opacity:1" fill="#eaf0eb" d="M 186.5,270.5 C 186.347,276.323 183.347,279.656 177.5,280.5C 177.961,282.916 179.294,284.75 181.5,286C 179.821,288.315 180.487,289.482 183.5,289.5C 185.03,289.36 186.03,288.693 186.5,287.5C 191.82,277.666 200.153,272.666 211.5,272.5C 217.385,273.209 222.218,275.876 226,280.5C 230.539,286.244 234.039,292.578 236.5,299.5C 236.719,300.675 236.386,301.675 235.5,302.5C 232.445,303.555 230.445,305.555 229.5,308.5C 230.442,315.349 233.109,321.349 237.5,326.5C 235.473,327.125 233.64,327.125 232,326.5C 231.023,324.26 230.523,321.927 230.5,319.5C 228.801,319.66 227.134,319.494 225.5,319C 227.146,315.433 226.646,312.266 224,309.5C 223.095,304.282 223.595,299.282 225.5,294.5C 224.83,291.154 224.163,287.821 223.5,284.5C 220.376,284.057 218.043,282.39 216.5,279.5C 213.13,275.358 209.297,274.691 205,277.5C 203.535,276.67 202.035,276.504 200.5,277C 201.167,277.333 201.833,277.667 202.5,278C 201.167,278.667 199.833,279.333 198.5,280C 199.056,280.383 199.389,280.883 199.5,281.5C 197.346,283.158 197.013,285.158 198.5,287.5C 196.167,287.5 193.833,287.5 191.5,287.5C 189.64,294.948 191.973,300.448 198.5,304C 197.549,304.718 197.383,305.551 198,306.5C 201.492,308.786 202.659,311.786 201.5,315.5C 200.818,311.801 198.485,309.967 194.5,310C 192.396,306.552 191.063,306.886 190.5,311C 191.126,311.75 191.626,312.584 192,313.5C 192.308,312.692 192.808,312.025 193.5,311.5C 196.748,314.205 196.915,316.872 194,319.5C 193.829,324.864 193.329,330.198 192.5,335.5C 190.786,337.35 188.786,338.684 186.5,339.5C 182.424,339.879 178.757,338.879 175.5,336.5C 176.325,335.614 177.325,335.281 178.5,335.5C 178.739,333.533 178.406,331.699 177.5,330C 178.833,326.669 180.166,323.336 181.5,320C 181.742,317.652 180.908,315.818 179,314.5C 178.505,312.527 178.338,310.527 178.5,308.5C 179.002,311.085 180.169,313.418 182,315.5C 182.167,317.167 182.333,318.833 182.5,320.5C 182.038,324.546 181.372,328.546 180.5,332.5C 180.33,333.822 180.663,334.989 181.5,336C 183.847,336.334 186.181,336.167 188.5,335.5C 189.931,335.119 190.764,334.119 191,332.5C 191.667,327.167 191.667,321.833 191,316.5C 189.095,313.714 187.262,310.881 185.5,308C 185.966,306.701 185.966,305.201 185.5,303.5C 186.5,303.5 187.5,303.5 188.5,303.5C 188.81,300.287 188.477,297.287 187.5,294.5C 187.24,292.405 186.074,291.072 184,290.5C 181.013,292.654 178.18,294.987 175.5,297.5C 171.188,295.188 167.855,291.855 165.5,287.5C 166.376,287.631 167.043,287.298 167.5,286.5C 165.585,284.929 164.585,282.929 164.5,280.5C 168.762,282.379 172.429,281.713 175.5,278.5C 176.873,278.657 178.207,278.49 179.5,278C 182.067,275.604 184.4,273.104 186.5,270.5 Z"/></g>
<g><path style="opacity:1" fill="#686b65" d="M 199.5,281.5 C 203.908,281.062 205.575,283.062 204.5,287.5C 202.5,287.5 200.5,287.5 198.5,287.5C 197.013,285.158 197.346,283.158 199.5,281.5 Z"/></g>
<g><path style="opacity:1" fill="#85a2b3" d="M 236.5,299.5 C 237.5,300.833 238.5,300.833 239.5,299.5C 239.561,301.592 240.561,303.092 242.5,304C 247.612,305.722 252.279,308.222 256.5,311.5C 263.308,317.304 269.308,323.804 274.5,331C 279.348,334.061 283.682,337.561 287.5,341.5C 292.429,343.908 297.763,345.074 303.5,345C 299.848,345.499 296.182,345.665 292.5,345.5C 288.342,344.502 284.342,343.002 280.5,341C 270.858,331.69 261.525,322.024 252.5,312C 249.567,310.729 246.901,309.062 244.5,307C 240.429,304.372 237.095,305.039 234.5,309C 233.004,315.685 234.671,321.519 239.5,326.5C 239.03,327.463 238.363,327.463 237.5,326.5C 233.109,321.349 230.442,315.349 229.5,308.5C 230.445,305.555 232.445,303.555 235.5,302.5C 236.386,301.675 236.719,300.675 236.5,299.5 Z"/></g>
<g><path style="opacity:1" fill="#171717" d="M 547.5,322.5 C 543.119,320.789 538.453,320.123 533.5,320.5C 532.5,320.5 531.5,320.5 530.5,320.5C 530.5,322.5 530.5,324.5 530.5,326.5C 526.738,326.694 525.071,324.86 525.5,321C 526.164,316.521 526.498,312.021 526.5,307.5C 528.167,307.5 529.833,307.5 531.5,307.5C 531.5,309.833 531.5,312.167 531.5,314.5C 545.201,315.503 558.868,316.837 572.5,318.5C 571.425,314.062 573.092,312.062 577.5,312.5C 576.833,318.833 576.167,325.167 575.5,331.5C 574.167,331.5 572.833,331.5 571.5,331.5C 571.5,329.167 571.5,326.833 571.5,324.5C 563.461,324.229 555.461,323.563 547.5,322.5 Z"/></g>
<g><path style="opacity:1" fill="#cbe0b1" d="M 175.5,306.5 C 175.5,306.167 175.5,305.833 175.5,305.5C 181.047,306.898 183.88,310.565 184,316.5C 184.473,321.622 183.806,326.622 182,331.5C 181.617,332.056 181.117,332.389 180.5,332.5C 181.372,328.546 182.038,324.546 182.5,320.5C 182.333,318.833 182.167,317.167 182,315.5C 180.169,313.418 179.002,311.085 178.5,308.5C 178.027,307.094 177.027,306.427 175.5,306.5 Z"/></g>
<g><path style="opacity:1" fill="#b2c4cc" d="M 333.5,333.5 C 327.167,334.833 320.833,334.833 314.5,333.5C 318.571,333.766 322.571,333.433 326.5,332.5C 331.11,328.557 335.443,324.223 339.5,319.5C 339.782,318.222 340.449,317.222 341.5,316.5C 343.284,315.107 345.284,314.607 347.5,315C 343.975,318.557 340.809,322.39 338,326.5C 335.257,328.788 332.423,330.955 329.5,333C 330.793,333.49 332.127,333.657 333.5,333.5 Z"/></g>
<g><path style="opacity:1" fill="#717171" d="M 533.5,320.5 C 538.453,320.123 543.119,320.789 547.5,322.5C 542.586,322.638 537.919,321.972 533.5,320.5 Z"/></g>
<g><path style="opacity:1" fill="#d9ebc4" d="M 187.5,294.5 C 188.477,297.287 188.81,300.287 188.5,303.5C 187.5,303.5 186.5,303.5 185.5,303.5C 185.966,305.201 185.966,306.701 185.5,308C 187.262,310.881 189.095,313.714 191,316.5C 191.667,321.833 191.667,327.167 191,332.5C 190.764,334.119 189.931,335.119 188.5,335.5C 189.615,330.25 189.781,324.917 189,319.5C 187.638,313.785 185.471,308.451 182.5,303.5C 186.92,302.227 188.587,299.227 187.5,294.5 Z"/></g>
<g><path style="opacity:1" fill="#eaf5f6" d="M 253.5,271.5 C 253.3,277.233 250.967,281.899 246.5,285.5C 246.709,286.086 247.043,286.586 247.5,287C 245.983,290.212 244.65,293.545 243.5,297C 244.287,299.099 244.62,301.266 244.5,303.5C 247.187,303.336 249.854,303.503 252.5,304C 254.155,306.498 256.488,307.998 259.5,308.5C 260.126,312.958 262.626,315.625 267,316.5C 267.813,318.436 268.313,320.436 268.5,322.5C 270.967,323.036 273.3,323.536 275.5,324C 278.329,327.672 280.996,331.505 283.5,335.5C 285.489,337.835 287.822,338.502 290.5,337.5C 294.565,339.223 298.732,340.556 303,341.5C 303.495,339.527 303.662,337.527 303.5,335.5C 301.143,335.663 298.81,335.497 296.5,335C 295.027,334.29 294.36,333.124 294.5,331.5C 292.139,331.326 289.806,330.993 287.5,330.5C 287.187,327.753 287.52,325.086 288.5,322.5C 293.288,324.564 298.288,325.564 303.5,325.5C 303.33,326.822 303.663,327.989 304.5,329C 309.14,330.322 313.807,330.155 318.5,328.5C 319.386,329.325 319.719,330.325 319.5,331.5C 322.179,331.327 324.513,330.327 326.5,328.5C 327.604,327.369 327.271,326.535 325.5,326C 326.662,325.173 327.829,324.34 329,323.5C 333.015,323.089 336.515,321.756 339.5,319.5C 335.443,324.223 331.11,328.557 326.5,332.5C 322.571,333.433 318.571,333.766 314.5,333.5C 309.476,332.46 304.476,331.627 299.5,331C 305.127,333.93 311.127,335.764 317.5,336.5C 317.586,337.496 317.252,338.329 316.5,339C 312.503,339.502 308.836,340.835 305.5,343C 299.384,343.732 293.384,343.232 287.5,341.5C 283.682,337.561 279.348,334.061 274.5,331C 269.308,323.804 263.308,317.304 256.5,311.5C 252.279,308.222 247.612,305.722 242.5,304C 240.561,303.092 239.561,301.592 239.5,299.5C 241.773,291.625 245.107,284.291 249.5,277.5C 250.351,275.118 251.684,273.118 253.5,271.5 Z"/></g>
<g><path style="opacity:1" fill="#497121" d="M 182.5,303.5 C 185.471,308.451 187.638,313.785 189,319.5C 189.781,324.917 189.615,330.25 188.5,335.5C 186.181,336.167 183.847,336.334 181.5,336C 180.663,334.989 180.33,333.822 180.5,332.5C 181.117,332.389 181.617,332.056 182,331.5C 183.806,326.622 184.473,321.622 184,316.5C 183.88,310.565 181.047,306.898 175.5,305.5C 177.279,303.656 179.612,302.99 182.5,303.5 Z"/></g>
<g><path style="opacity:1" fill="#5f788c" d="M 329.5,336.5 C 325.5,336.5 321.5,336.5 317.5,336.5C 311.127,335.764 305.127,333.93 299.5,331C 304.476,331.627 309.476,332.46 314.5,333.5C 320.833,334.833 327.167,334.833 333.5,333.5C 339.81,332.356 343.643,328.689 345,322.5C 347.243,326.604 346.41,330.104 342.5,333C 338.515,335.495 334.182,336.662 329.5,336.5 Z"/></g>
<g><path style="opacity:1" fill="#141414" d="M 49.5,346.5 C 49.8365,343.17 48.3365,341.504 45,341.5C 41.938,341.741 39.1046,342.408 36.5,343.5C 26.925,345.643 17.2583,347.31 7.5,348.5C 7.99255,350.806 8.32588,353.139 8.5,355.5C 6.83333,355.5 5.16667,355.5 3.5,355.5C 3.19595,349.871 2.19595,344.371 0.5,339C 1.61898,337.124 3.28564,336.291 5.5,336.5C 5.5,338.5 5.5,340.5 5.5,342.5C 19.1941,340.382 32.8608,337.715 46.5,334.5C 46.5,332.5 46.5,330.5 46.5,328.5C 47.8333,328.5 49.1667,328.5 50.5,328.5C 51.9243,334.436 52.9243,340.436 53.5,346.5C 52.1667,346.5 50.8333,346.5 49.5,346.5 Z"/></g>
<g><path style="opacity:1" fill="#acacac" d="M 49.5,346.5 C 47.8958,345.713 47.2291,344.38 47.5,342.5C 43.8815,343.244 40.2148,343.577 36.5,343.5C 39.1046,342.408 41.938,341.741 45,341.5C 48.3365,341.504 49.8365,343.17 49.5,346.5 Z"/></g>
<g><path style="opacity:1" fill="#171717" d="M 540.5,369.5 C 542.515,370.924 544.848,371.59 547.5,371.5C 552.033,372.758 556.533,374.091 561,375.5C 561.985,373.825 562.819,372.158 563.5,370.5C 564.5,370.5 565.5,370.5 566.5,370.5C 566.5,371.833 566.5,373.167 566.5,374.5C 565.119,378.737 564.119,383.07 563.5,387.5C 561.833,387.5 560.167,387.5 558.5,387.5C 558.318,385.409 558.652,383.409 559.5,381.5C 545.066,376.982 530.399,373.315 515.5,370.5C 515.993,368.194 516.326,365.861 516.5,363.5C 530.95,360.11 545.283,356.277 559.5,352C 548.783,348.071 537.783,345.237 526.5,343.5C 526.5,345.167 526.5,346.833 526.5,348.5C 524.833,348.5 523.167,348.5 521.5,348.5C 522.044,342.656 523.378,336.989 525.5,331.5C 526.391,330.41 527.391,330.41 528.5,331.5C 529.466,333.396 529.799,335.396 529.5,337.5C 542.844,340.509 556.178,343.509 569.5,346.5C 569.5,345.167 569.5,343.833 569.5,342.5C 571.948,342.01 573.615,342.843 574.5,345C 574.034,349.038 572.7,352.705 570.5,356C 556.901,358.819 543.568,362.485 530.5,367C 533.72,368.352 537.053,369.186 540.5,369.5 Z"/></g>
<g><path style="opacity:1" fill="#ecf2f3" d="M 201.5,315.5 C 201.461,316.756 201.961,317.756 203,318.5C 203.219,317.062 203.719,315.729 204.5,314.5C 206.369,320.155 208.202,325.822 210,331.5C 216.498,336.703 222.664,342.203 228.5,348C 236.164,350.976 243.497,354.642 250.5,359C 256.872,359.57 263.205,360.404 269.5,361.5C 270.853,362.524 271.52,363.857 271.5,365.5C 275.083,366.724 278.749,367.89 282.5,369C 286.207,373.583 289.541,378.417 292.5,383.5C 290.833,383.5 289.167,383.5 287.5,383.5C 287.5,384.5 287.5,385.5 287.5,386.5C 259.862,385.75 236.028,376.083 216,357.5C 209.886,350.606 205.886,342.606 204,333.5C 204.104,339.914 205.771,345.914 209,351.5C 213.159,357.515 217.992,362.848 223.5,367.5C 221.801,367.66 220.134,367.494 218.5,367C 214.632,364.466 211.298,361.299 208.5,357.5C 207.652,355.591 207.318,353.591 207.5,351.5C 206.167,351.5 204.833,351.5 203.5,351.5C 202.058,348.597 200.891,344.93 200,340.5C 196.311,343.204 194.144,346.87 193.5,351.5C 187.5,351.5 181.5,351.5 175.5,351.5C 175.5,350.5 175.5,349.5 175.5,348.5C 180.833,348.5 186.167,348.5 191.5,348.5C 191.5,346.833 191.5,345.167 191.5,343.5C 187.985,342.206 184.318,341.372 180.5,341C 182.708,340.809 184.708,340.309 186.5,339.5C 188.786,338.684 190.786,337.35 192.5,335.5C 193.329,330.198 193.829,324.864 194,319.5C 196.915,316.872 196.748,314.205 193.5,311.5C 192.808,312.025 192.308,312.692 192,313.5C 191.626,312.584 191.126,311.75 190.5,311C 191.063,306.886 192.396,306.552 194.5,310C 198.485,309.967 200.818,311.801 201.5,315.5 Z"/></g>
<g><path style="opacity:1" fill="#7a7a7a" d="M 540.5,369.5 C 543.152,369.41 545.485,370.076 547.5,371.5C 544.848,371.59 542.515,370.924 540.5,369.5 Z"/></g>
<g><path style="opacity:1" fill="#808080" d="M 563.5,370.5 C 564.568,369.566 565.901,369.232 567.5,369.5C 567.784,371.415 567.451,373.081 566.5,374.5C 566.5,373.167 566.5,371.833 566.5,370.5C 565.5,370.5 564.5,370.5 563.5,370.5 Z"/></g>
<g><path style="opacity:1" fill="#afc7d7" d="M 317.5,336.5 C 321.5,336.5 325.5,336.5 329.5,336.5C 327.708,337.309 325.708,337.809 323.5,338C 317.238,342.028 311.072,345.528 305,348.5C 312.669,358.454 320.336,368.454 328,378.5C 335.487,384.322 342.653,390.489 349.5,397C 354.866,398.588 359.866,400.922 364.5,404C 372.169,405.248 379.502,407.415 386.5,410.5C 387.659,414.122 387.825,417.789 387,421.5C 384.361,424.45 382.527,427.783 381.5,431.5C 380.11,430.101 379.11,428.434 378.5,426.5C 380.411,426.426 381.578,425.426 382,423.5C 382.497,420.854 382.664,418.187 382.5,415.5C 369.673,413.404 357.673,409.071 346.5,402.5C 345.614,401.675 345.281,400.675 345.5,399.5C 342.602,398.882 339.935,397.715 337.5,396C 333.97,391.97 329.97,388.47 325.5,385.5C 321.966,379.741 317.966,374.407 313.5,369.5C 309.669,362.813 305.169,356.479 300,350.5C 297.574,348.548 295.074,346.881 292.5,345.5C 296.182,345.665 299.848,345.499 303.5,345C 297.763,345.074 292.429,343.908 287.5,341.5C 293.384,343.232 299.384,343.732 305.5,343C 308.836,340.835 312.503,339.502 316.5,339C 317.252,338.329 317.586,337.496 317.5,336.5 Z"/></g>
<g><path style="opacity:1" fill="#151515" d="M 55.5,359.5 C 56.9778,359.238 58.3112,359.571 59.5,360.5C 61.7417,365.712 63.2417,371.046 64,376.5C 62.9887,377.337 61.8221,377.67 60.5,377.5C 60.767,375.029 59.767,373.362 57.5,372.5C 45.4326,377.249 33.0993,381.249 20.5,384.5C 20.467,387.836 21.1336,391.003 22.5,394C 24.9054,394.148 27.2387,393.648 29.5,392.5C 31.5,392.5 32.5,393.5 32.5,395.5C 28.8949,398.799 24.5616,400.799 19.5,401.5C 16.1483,389.943 12.4817,378.443 8.5,367C 12.3156,364.096 16.6489,362.263 21.5,361.5C 21.3573,363.262 21.6906,364.929 22.5,366.5C 20.4527,368.015 18.1193,368.849 15.5,369C 14.677,371.925 15.177,374.758 17,377.5C 17.5613,378.022 18.228,378.355 19,378.5C 31.2953,373.802 43.7953,369.802 56.5,366.5C 56.0074,364.194 55.6741,361.861 55.5,359.5 Z"/></g>
<g><path style="opacity:1" fill="#87a5bc" d="M 287.5,386.5 C 291.642,386.934 295.308,388.434 298.5,391C 300.668,393.998 303.001,396.831 305.5,399.5C 303.824,400.183 303.157,401.517 303.5,403.5C 291.642,391.861 277.309,386.028 260.5,386C 247.318,381.409 234.985,375.242 223.5,367.5C 217.992,362.848 213.159,357.515 209,351.5C 205.771,345.914 204.104,339.914 204,333.5C 205.886,342.606 209.886,350.606 216,357.5C 236.028,376.083 259.862,385.75 287.5,386.5 Z"/></g>
<g><path style="opacity:1" fill="#171717" d="M 511.5,378.5 C 515.109,378.754 516.109,380.421 514.5,383.5C 515.01,385.088 516.01,386.255 517.5,387C 528.154,391.909 538.987,396.409 550,400.5C 552.756,400.576 553.923,399.243 553.5,396.5C 555.714,396.291 557.381,397.124 558.5,399C 555.969,404.561 553.303,410.061 550.5,415.5C 549.833,415.167 549.167,414.833 548.5,414.5C 547.795,411.911 547.795,409.244 548.5,406.5C 535.966,402.486 523.8,397.486 512,391.5C 510.124,392.619 509.291,394.286 509.5,396.5C 507.516,396.617 505.85,395.95 504.5,394.5C 506.46,388.938 508.793,383.604 511.5,378.5 Z"/></g>
<g><path style="opacity:1" fill="#eaf3f4" d="M 313.5,369.5 C 317.966,374.407 321.966,379.741 325.5,385.5C 329.97,388.47 333.97,391.97 337.5,396C 339.935,397.715 342.602,398.882 345.5,399.5C 345.281,400.675 345.614,401.675 346.5,402.5C 357.673,409.071 369.673,413.404 382.5,415.5C 382.664,418.187 382.497,420.854 382,423.5C 381.578,425.426 380.411,426.426 378.5,426.5C 370.149,417.499 360.149,411.333 348.5,408C 358.099,412.271 366.599,418.105 374,425.5C 378.535,430.768 379.702,436.768 377.5,443.5C 376.642,448.284 375.642,448.45 374.5,444C 375.237,439.863 375.571,435.697 375.5,431.5C 374.325,431.719 373.325,431.386 372.5,430.5C 373.641,429.575 373.641,428.741 372.5,428C 370.975,426.991 369.308,426.491 367.5,426.5C 367.5,425.167 367.5,423.833 367.5,422.5C 366.167,422.5 364.833,422.5 363.5,422.5C 363.022,425.278 364.022,427.278 366.5,428.5C 367.487,431.768 367.82,435.102 367.5,438.5C 359.798,426.637 349.631,417.304 337,410.5C 335.278,410.611 335.112,411.111 336.5,412C 339.921,413.699 342.921,415.865 345.5,418.5C 345.961,420.55 346.628,422.55 347.5,424.5C 345.696,425.768 343.696,426.435 341.5,426.5C 339.1,423.097 336.1,420.43 332.5,418.5C 328.6,415.963 324.266,414.963 319.5,415.5C 319.5,413.833 319.5,412.167 319.5,410.5C 321.288,410.785 322.955,410.452 324.5,409.5C 326.98,406.639 327.98,403.306 327.5,399.5C 324.833,399.5 322.167,399.5 319.5,399.5C 319.281,398.325 319.614,397.325 320.5,396.5C 322.409,395.652 324.409,395.318 326.5,395.5C 326.657,394.127 326.49,392.793 326,391.5C 324.157,389.153 321.99,387.153 319.5,385.5C 320.167,385.167 320.833,384.833 321.5,384.5C 320.045,382.78 319.212,380.78 319,378.5C 317.497,378.835 316.164,378.835 315,378.5C 313.851,375.607 313.351,372.607 313.5,369.5 Z"/></g>
<g><path style="opacity:1" fill="#5b7287" d="M 378.5,426.5 C 379.11,428.434 380.11,430.101 381.5,431.5C 381.701,434.728 381.367,437.895 380.5,441C 379.87,442.31 378.87,443.144 377.5,443.5C 379.702,436.768 378.535,430.768 374,425.5C 366.599,418.105 358.099,412.271 348.5,408C 360.149,411.333 370.149,417.499 378.5,426.5 Z"/></g>
<g><path style="opacity:1" fill="#eff7f1" d="M 292.5,383.5 C 292.586,384.496 292.252,385.329 291.5,386C 293.833,386.333 296.167,386.667 298.5,387C 299.071,388.205 299.738,389.372 300.5,390.5C 308.123,391.6 312.123,396.266 312.5,404.5C 313.873,404.343 315.207,404.51 316.5,405C 316.989,407.209 317.989,409.042 319.5,410.5C 319.5,412.167 319.5,413.833 319.5,415.5C 324.266,414.963 328.6,415.963 332.5,418.5C 333.167,419.5 333.833,420.5 334.5,421.5C 334.813,425.409 336.813,428.742 340.5,431.5C 341.308,433.423 341.808,435.423 342,437.5C 345.677,439.857 347.511,443.19 347.5,447.5C 345.833,447.5 344.167,447.5 342.5,447.5C 342.435,445.304 341.768,443.304 340.5,441.5C 337.267,443.675 336.934,446.175 339.5,449C 337.602,453.43 337.269,457.93 338.5,462.5C 337.675,463.386 336.675,463.719 335.5,463.5C 335.361,459.25 334.695,455.084 333.5,451C 334.079,448.806 334.746,446.64 335.5,444.5C 335.279,441.057 334.279,440.724 332.5,443.5C 331.353,441.235 331.186,438.902 332,436.5C 334.072,439.154 335.739,438.82 337,435.5C 337.49,434.207 337.657,432.873 337.5,431.5C 333.833,431.5 330.167,431.5 326.5,431.5C 327.258,425.689 324.925,422.023 319.5,420.5C 317.477,415.265 314.977,410.265 312,405.5C 309.917,403.244 307.75,401.244 305.5,399.5C 303.001,396.831 300.668,393.998 298.5,391C 295.308,388.434 291.642,386.934 287.5,386.5C 287.5,385.5 287.5,384.5 287.5,383.5C 289.167,383.5 290.833,383.5 292.5,383.5 Z"/></g>
<g><path style="opacity:1" fill="#5f7788" d="M 367.5,438.5 C 369.317,443.337 369.817,448.337 369,453.5C 368.344,455.986 366.844,457.653 364.5,458.5C 363.957,458.44 363.624,458.107 363.5,457.5C 367.531,453.381 368.364,448.715 366,443.5C 361.888,432.892 355.055,424.559 345.5,418.5C 342.921,415.865 339.921,413.699 336.5,412C 335.112,411.111 335.278,410.611 337,410.5C 349.631,417.304 359.798,426.637 367.5,438.5 Z"/></g>
<g><path style="opacity:1" fill="#161616" d="M 63.5,388.5 C 65.1667,388.5 66.8333,388.5 68.5,388.5C 70.7857,393.071 73.1191,397.738 75.5,402.5C 72.7865,405.322 70.7865,404.822 69.5,401C 68.8333,400.333 68.1667,400.333 67.5,401C 64.0148,404.096 61.5148,407.596 60,411.5C 62.7503,415.332 65.2503,419.332 67.5,423.5C 72.2297,424.328 76.8964,423.828 81.5,422C 80.8155,420.307 79.8155,418.807 78.5,417.5C 79.2116,415.954 80.3783,414.954 82,414.5C 85.1928,419.042 88.0262,423.875 90.5,429C 89.9019,430.301 88.9019,431.135 87.5,431.5C 86.238,429.619 84.5713,428.286 82.5,427.5C 68.9736,430.739 55.3069,433.072 41.5,434.5C 41.4772,436.6 42.1439,438.433 43.5,440C 42.828,442.39 41.4946,442.89 39.5,441.5C 35.9145,435.998 32.5812,430.331 29.5,424.5C 30.1667,423.167 31.1667,422.167 32.5,421.5C 33.5,423.167 34.8333,424.5 36.5,425.5C 46.0578,414.872 55.7244,404.372 65.5,394C 64.1439,392.433 63.4772,390.6 63.5,388.5 Z"/></g>
<g><path style="opacity:1" fill="#e3e3e3" d="M 55.5,413.5 C 59.0763,417.099 61.4096,421.432 62.5,426.5C 55.7227,427.189 49.0561,428.522 42.5,430.5C 42.1667,430.167 41.8333,429.833 41.5,429.5C 45.8165,423.851 50.4832,418.517 55.5,413.5 Z"/></g>
<g><path style="opacity:1" fill="#5c768f" d="M 332.5,418.5 C 336.1,420.43 339.1,423.097 341.5,426.5C 347.553,433.935 352.053,442.268 355,451.5C 357.033,459.142 355.2,465.475 349.5,470.5C 348.448,470.649 347.448,470.483 346.5,470C 347.71,468.961 348.71,467.794 349.5,466.5C 351.213,465.365 351.88,463.698 351.5,461.5C 351.398,445.753 345.732,432.42 334.5,421.5C 333.833,420.5 333.167,419.5 332.5,418.5 Z"/></g>
<g><path style="opacity:1" fill="#151515" d="M 503.5,397.5 C 508.288,400.287 513.288,402.621 518.5,404.5C 518.703,406.39 518.037,407.89 516.5,409C 506.598,406.755 499.764,410.255 496,419.5C 495.1,428.269 498.933,431.769 507.5,430C 513.426,426.079 518.759,421.412 523.5,416C 532.031,413.178 538.531,415.678 543,423.5C 544.021,430.254 542.188,436.087 537.5,441C 535.35,442.411 533.016,443.245 530.5,443.5C 530.48,445.143 531.147,446.476 532.5,447.5C 531.5,448.833 530.5,450.167 529.5,451.5C 526.995,449.747 524.329,448.247 521.5,447C 518.647,445.47 517.98,443.303 519.5,440.5C 525.865,440.664 531.365,438.664 536,434.5C 539.381,422.878 535.548,419.378 524.5,424C 519.317,429.524 513.317,433.858 506.5,437C 498.794,437.959 493.628,434.792 491,427.5C 488.658,415.822 493.158,407.989 504.5,404C 500.887,402.271 500.554,400.104 503.5,397.5 Z"/></g>
<g><path style="opacity:1" fill="#7ba0c3" d="M 305.5,399.5 C 307.75,401.244 309.917,403.244 312,405.5C 314.977,410.265 317.477,415.265 319.5,420.5C 326.361,434.895 331.528,449.895 335,465.5C 337.064,466.591 339.231,466.758 341.5,466C 344.939,464.726 348.272,463.226 351.5,461.5C 351.88,463.698 351.213,465.365 349.5,466.5C 349.44,465.957 349.107,465.624 348.5,465.5C 344.656,467.39 340.989,469.556 337.5,472C 334.571,472.777 331.737,472.61 329,471.5C 325.529,451.225 319.195,431.892 310,413.5C 307.563,410.28 305.397,406.947 303.5,403.5C 303.157,401.517 303.824,400.183 305.5,399.5 Z"/></g>
<g><path style="opacity:1" fill="#e8f2f4" d="M 319.5,420.5 C 324.925,422.023 327.258,425.689 326.5,431.5C 330.167,431.5 333.833,431.5 337.5,431.5C 337.657,432.873 337.49,434.207 337,435.5C 335.739,438.82 334.072,439.154 332,436.5C 331.186,438.902 331.353,441.235 332.5,443.5C 334.279,440.724 335.279,441.057 335.5,444.5C 334.746,446.64 334.079,448.806 333.5,451C 334.695,455.084 335.361,459.25 335.5,463.5C 336.675,463.719 337.675,463.386 338.5,462.5C 337.269,457.93 337.602,453.43 339.5,449C 336.934,446.175 337.267,443.675 340.5,441.5C 341.768,443.304 342.435,445.304 342.5,447.5C 344.167,447.5 345.833,447.5 347.5,447.5C 347.511,443.19 345.677,439.857 342,437.5C 341.808,435.423 341.308,433.423 340.5,431.5C 336.813,428.742 334.813,425.409 334.5,421.5C 345.732,432.42 351.398,445.753 351.5,461.5C 348.272,463.226 344.939,464.726 341.5,466C 339.231,466.758 337.064,466.591 335,465.5C 331.528,449.895 326.361,434.895 319.5,420.5 Z"/></g>
<g><path style="opacity:1" fill="#131313" d="M 95.5,434.5 C 97.5253,435.519 98.8586,437.185 99.5,439.5C 95.2713,453.13 90.6046,466.63 85.5,480C 85.8333,480.5 86.1667,481 86.5,481.5C 94.5,474.5 102.5,467.5 110.5,460.5C 111.583,459.635 111.749,458.635 111,457.5C 107.831,455.619 107.831,453.619 111,451.5C 115.597,455.424 119.43,459.924 122.5,465C 122.07,466.434 121.236,467.601 120,468.5C 118.66,467.132 117.326,465.799 116,464.5C 105.719,472.443 95.7192,480.776 86,489.5C 85.4712,491.585 85.9712,493.418 87.5,495C 87.3333,496.5 86.5,497.333 85,497.5C 81.4693,494.78 78.636,491.447 76.5,487.5C 79.1806,478.955 82.3473,470.622 86,462.5C 87.446,458.186 88.446,453.853 89,449.5C 81.3716,455.46 74.0382,461.793 67,468.5C 66.376,470.464 66.876,472.131 68.5,473.5C 67.8551,474.646 67.0217,475.646 66,476.5C 62.0089,472.491 58.5089,468.158 55.5,463.5C 55.4528,462 56.1195,461 57.5,460.5C 58.7582,463.5 60.7582,464.5 63.5,463.5C 74.7002,454.265 85.3669,444.598 95.5,434.5 Z"/></g>
<g><path style="opacity:1" fill="#dceaec" d="M 345.5,418.5 C 355.055,424.559 361.888,432.892 366,443.5C 368.364,448.715 367.531,453.381 363.5,457.5C 363.624,458.107 363.957,458.44 364.5,458.5C 364.414,459.496 364.748,460.329 365.5,461C 364.5,461.5 363.5,462 362.5,462.5C 362.891,461.109 362.058,460.109 360,459.5C 359.699,464.78 357.365,468.78 353,471.5C 351.989,470.663 350.822,470.33 349.5,470.5C 355.2,465.475 357.033,459.142 355,451.5C 352.053,442.268 347.553,433.935 341.5,426.5C 343.696,426.435 345.696,425.768 347.5,424.5C 346.628,422.55 345.961,420.55 345.5,418.5 Z"/></g>
<g><path style="opacity:1" fill="#151515" d="M 476.5,441.5 C 478.384,441.712 479.717,442.712 480.5,444.5C 478.861,445.916 478.027,447.583 478,449.5C 487.5,457.667 497,465.833 506.5,474C 510.003,473.707 512.669,471.874 514.5,468.5C 512.661,466.162 510.661,463.996 508.5,462C 509.208,459.277 510.875,458.277 513.5,459C 515.907,461.285 518.407,463.451 521,465.5C 521.418,467.788 520.751,469.788 519,471.5C 512.058,479.729 504.891,487.729 497.5,495.5C 494.141,492.471 490.808,489.471 487.5,486.5C 488.212,484.954 489.378,483.954 491,483.5C 493.879,484.376 496.213,486.042 498,488.5C 499.793,485.705 501.96,483.205 504.5,481C 494.307,471.807 483.807,462.974 473,454.5C 471.669,455.996 470.169,457.329 468.5,458.5C 467.167,457.833 466.167,456.833 465.5,455.5C 469.19,450.815 472.857,446.148 476.5,441.5 Z"/></g>
<g><path style="opacity:1" fill="#141414" d="M 111.5,495.5 C 114.187,495.664 116.854,495.497 119.5,495C 118.934,494.005 118.267,493.172 117.5,492.5C 117.421,489.729 117.921,487.063 119,484.5C 121.675,480.995 124.509,477.661 127.5,474.5C 126.329,472.831 124.996,471.331 123.5,470C 123.613,468.72 124.28,467.887 125.5,467.5C 129.56,469.064 132.893,471.564 135.5,475C 131.311,479.526 127.477,484.359 124,489.5C 124.086,496.284 127.419,500.951 134,503.5C 138.654,499.382 142.487,494.549 145.5,489C 144.711,487.374 143.711,485.874 142.5,484.5C 143.145,483.354 143.978,482.354 145,481.5C 149.625,485.223 154.125,489.056 158.5,493C 158.333,494.5 157.5,495.333 156,495.5C 154.667,494.833 153.333,494.167 152,493.5C 143.334,504.003 134.834,514.67 126.5,525.5C 127.833,526.833 129.167,528.167 130.5,529.5C 130.135,530.902 129.301,531.902 128,532.5C 121.428,527.794 114.928,522.961 108.5,518C 100.101,509.125 101.101,501.625 111.5,495.5 Z"/></g>
<g><path style="opacity:1" fill="#747474" d="M 117.5,492.5 C 118.267,493.172 118.934,494.005 119.5,495C 116.854,495.497 114.187,495.664 111.5,495.5C 113.844,495.06 115.844,494.06 117.5,492.5 Z"/></g>
<g><path style="opacity:1" fill="#141414" d="M 455.5,461.5 C 456.5,461.5 457.5,461.5 458.5,461.5C 458.238,464.501 457.404,467.168 456,469.5C 464.202,479.906 472.869,489.906 482,499.5C 483.333,498.833 484.667,498.167 486,497.5C 487.5,497.667 488.333,498.5 488.5,500C 481.524,506.635 474.19,512.969 466.5,519C 462.833,519.667 459.167,519.667 455.5,519C 452.137,515.802 449.804,511.968 448.5,507.5C 448.887,505.726 449.553,504.059 450.5,502.5C 447.444,501.804 444.444,500.97 441.5,500C 438.309,496.147 435.143,492.313 432,488.5C 430.441,489.029 428.941,489.696 427.5,490.5C 426.28,490.113 425.613,489.28 425.5,488C 427.492,484.827 430.158,482.327 433.5,480.5C 437.99,485.159 442.323,489.992 446.5,495C 448.833,495.667 451.167,495.667 453.5,495C 456.167,493 458.833,491 461.5,489C 462.451,488.282 462.617,487.449 462,486.5C 458.143,482.611 454.643,478.444 451.5,474C 449.415,473.471 447.582,473.971 446,475.5C 444.5,475.333 443.667,474.5 443.5,473C 447.33,469.003 451.33,465.17 455.5,461.5 Z"/></g>
<g><path style="opacity:1" fill="#e6e6e6" d="M 113.5,500.5 C 120.676,500.42 126.676,503.086 131.5,508.5C 128.165,512.998 124.665,517.331 121,521.5C 116.407,518.714 112.74,515.048 110,510.5C 109.333,508.5 109.333,506.5 110,504.5C 111.376,503.295 112.542,501.962 113.5,500.5 Z"/></g>
<g><path style="opacity:1" fill="#141414" d="M 419.5,489.5 C 423.976,490.723 424.309,492.389 420.5,494.5C 419.417,495.365 419.251,496.365 420,497.5C 426.297,509.13 433.297,520.13 441,530.5C 444.984,527.372 447.15,528.372 447.5,533.5C 442.556,535.328 437.89,537.828 433.5,541C 431.393,541.854 430.059,541.188 429.5,539C 430.997,537.338 432.663,535.838 434.5,534.5C 427.417,522.665 420.083,510.998 412.5,499.5C 411.086,500.624 409.586,501.624 408,502.5C 407.355,501.354 406.522,500.354 405.5,499.5C 409.844,495.666 414.51,492.333 419.5,489.5 Z"/></g>
<g><path style="opacity:1" fill="#e5e5e5" d="M 464.5,491.5 C 466.017,491.511 467.184,492.177 468,493.5C 470.903,496.732 473.403,500.232 475.5,504C 471.837,510.161 466.504,513.161 459.5,513C 454.36,509.304 453.36,504.804 456.5,499.5C 459.521,497.146 462.188,494.479 464.5,491.5 Z"/></g>
<g><path style="opacity:1" fill="#131313" d="M 364.5,545.5 C 366.649,546.736 368.982,547.736 371.5,548.5C 375.783,553.497 376.616,559.164 374,565.5C 367.629,572.469 360.129,574.136 351.5,570.5C 350.943,573.98 348.943,575.647 345.5,575.5C 344.525,571.532 343.525,567.532 342.5,563.5C 343.096,560.754 344.763,559.92 347.5,561C 354.007,569.023 361.007,569.523 368.5,562.5C 370.458,558.273 369.458,555.106 365.5,553C 356.746,552.024 348.079,550.691 339.5,549C 333.424,543.227 331.924,536.394 335,528.5C 341.816,521.569 349.983,519.569 359.5,522.5C 360.449,518.727 362.616,517.727 366,519.5C 367.489,524.782 368.656,530.116 369.5,535.5C 367.801,535.66 366.134,535.494 364.5,535C 358.41,525.762 350.743,524.262 341.5,530.5C 337.107,538.63 339.44,543.463 348.5,545C 353.823,545.499 359.156,545.666 364.5,545.5 Z"/></g>
<g><path style="opacity:1" fill="#141414" d="M 160.5,494.5 C 172.152,500.497 183.818,506.497 195.5,512.5C 195.135,513.902 194.301,514.902 193,515.5C 191.211,514.591 189.377,514.424 187.5,515C 181.508,526.651 175.508,538.318 169.5,550C 170.619,551.876 172.286,552.709 174.5,552.5C 174.826,555.757 173.493,557.257 170.5,557C 160.272,551.265 149.939,545.765 139.5,540.5C 138.386,539.277 138.219,537.944 139,536.5C 140.64,534.421 141.806,532.088 142.5,529.5C 144.401,528.769 146.401,528.769 148.5,529.5C 148.076,532.354 147.076,535.021 145.5,537.5C 150.3,540.069 154.967,542.902 159.5,546C 161.112,546.72 162.612,546.554 164,545.5C 166.3,541.732 168.467,537.898 170.5,534C 168.532,532.342 166.532,530.675 164.5,529C 161.529,528.529 158.862,527.362 156.5,525.5C 155.911,523.627 156.578,521.96 158.5,520.5C 163.256,523.573 168.256,525.74 173.5,527C 176.294,521.912 178.961,516.745 181.5,511.5C 176.33,507.412 170.664,504.078 164.5,501.5C 162.019,503.928 160.685,506.928 160.5,510.5C 157.896,510.402 155.896,509.235 154.5,507C 156.745,502.93 158.745,498.764 160.5,494.5 Z"/></g>
<g><path style="opacity:1" fill="#a3a3a3" d="M 265.5,529.5 C 270.262,528.109 274.928,528.442 279.5,530.5C 274.848,530.002 270.181,529.669 265.5,529.5 Z"/></g>
<g><path style="opacity:1" fill="#424242" d="M 286.5,529.5 C 292.645,528.51 298.978,528.177 305.5,528.5C 305.5,530.167 305.5,531.833 305.5,533.5C 303.5,533.5 301.5,533.5 299.5,533.5C 300.919,532.549 302.585,532.216 304.5,532.5C 304.5,531.5 304.5,530.5 304.5,529.5C 298.5,529.5 292.5,529.5 286.5,529.5 Z"/></g>
<g><path style="opacity:1" fill="#121212" d="M 399.5,501.5 C 401.958,501.227 403.625,502.227 404.5,504.5C 402.833,505.833 401.167,507.167 399.5,508.5C 404.95,521.058 410.617,533.391 416.5,545.5C 420.667,542.25 422.667,543.25 422.5,548.5C 411.53,553.159 400.53,557.826 389.5,562.5C 388.558,562.392 387.725,562.059 387,561.5C 385.189,557.884 383.689,554.217 382.5,550.5C 384.5,550.167 386.5,549.833 388.5,549.5C 388.61,552.386 389.777,554.72 392,556.5C 398.213,553.978 404.047,550.811 409.5,547C 407.47,542.439 405.303,537.939 403,533.5C 398.302,535.508 393.636,537.508 389,539.5C 385.35,538.392 384.85,536.558 387.5,534C 391.506,532.499 395.506,530.999 399.5,529.5C 399.833,528.833 400.167,528.167 400.5,527.5C 398.613,522.058 396.446,516.725 394,511.5C 392.951,510.483 391.784,510.316 390.5,511C 385.833,513.333 381.167,515.667 376.5,518C 375.978,518.561 375.645,519.228 375.5,520C 376.598,522.46 377.598,524.96 378.5,527.5C 377.061,529.553 375.061,530.553 372.5,530.5C 371.069,525.711 369.569,521.044 368,516.5C 378.508,511.393 389.008,506.393 399.5,501.5 Z"/></g>
<g><path style="opacity:1" fill="#0c0c0c" d="M 286.5,529.5 C 292.5,529.5 298.5,529.5 304.5,529.5C 304.5,530.5 304.5,531.5 304.5,532.5C 302.585,532.216 300.919,532.549 299.5,533.5C 299.982,547.33 300.648,560.997 301.5,574.5C 302.919,575.451 304.585,575.784 306.5,575.5C 306.5,576.833 306.5,578.167 306.5,579.5C 300.5,579.5 294.5,579.5 288.5,579.5C 288.5,578.167 288.5,576.833 288.5,575.5C 290.5,575.5 292.5,575.5 294.5,575.5C 294.825,568.313 294.491,561.313 293.5,554.5C 293.5,547.5 293.5,540.5 293.5,533.5C 291.167,533.5 288.833,533.5 286.5,533.5C 286.5,532.167 286.5,530.833 286.5,529.5 Z"/></g>
<g><path style="opacity:1" fill="#101010" d="M 267.5,563.5 C 268.639,559.699 269.472,555.699 270,551.5C 271.003,553.935 271.503,553.602 271.5,550.5C 270.79,547.201 270.457,543.867 270.5,540.5C 270.5,538.167 270.5,535.833 270.5,533.5C 268.833,533.5 267.167,533.5 265.5,533.5C 265.5,532.167 265.5,530.833 265.5,529.5C 270.181,529.669 274.848,530.002 279.5,530.5C 280.833,530.5 282.167,530.5 283.5,530.5C 283.5,532.167 283.5,533.833 283.5,535.5C 281.208,535.244 279.041,535.577 277,536.5C 275.435,549.82 273.935,563.153 272.5,576.5C 274.167,576.5 275.833,576.5 277.5,576.5C 277.5,578.167 277.5,579.833 277.5,581.5C 273.202,580.8 268.869,580.467 264.5,580.5C 260.481,570.758 256.481,561.091 252.5,551.5C 251.286,548.07 249.786,544.736 248,541.5C 245.782,551.681 244.615,562.014 244.5,572.5C 247.91,572.384 249.244,574.05 248.5,577.5C 246.833,577.5 245.167,577.5 243.5,577.5C 239.534,576.838 235.534,576.505 231.5,576.5C 231.5,574.833 231.5,573.167 231.5,571.5C 233.5,571.5 235.5,571.5 237.5,571.5C 239.078,566.417 239.745,561.084 239.5,555.5C 240.418,545.824 241.418,536.157 242.5,526.5C 245.652,525.959 248.152,526.959 250,529.5C 255.211,542.3 260.711,554.967 266.5,567.5C 267.429,566.311 267.762,564.978 267.5,563.5 Z"/></g>
<g><path style="opacity:1" fill="#808080" d="M 364.5,545.5 C 367.491,545.166 369.824,546.166 371.5,548.5C 368.982,547.736 366.649,546.736 364.5,545.5 Z"/></g>
<g><path style="opacity:1" fill="#303030" d="M 270.5,540.5 C 270.457,543.867 270.79,547.201 271.5,550.5C 271.503,553.602 271.003,553.935 270,551.5C 269.472,555.699 268.639,559.699 267.5,563.5C 267.866,555.615 268.866,547.949 270.5,540.5 Z"/></g>
<g><path style="opacity:1" fill="#131313" d="M 202.5,567.5 C 200.485,566.076 198.152,565.41 195.5,565.5C 191.673,563.877 187.673,562.877 183.5,562.5C 184.481,557.856 185.481,553.189 186.5,548.5C 188.696,548.565 190.696,549.232 192.5,550.5C 191.067,553.333 190.4,556.333 190.5,559.5C 193.786,560.207 197.119,560.54 200.5,560.5C 203.702,547.356 207.369,534.356 211.5,521.5C 209.833,521.5 208.167,521.5 206.5,521.5C 206.5,519.833 206.5,518.167 206.5,516.5C 212.739,518.246 219.073,519.579 225.5,520.5C 225.709,522.714 224.876,524.381 223,525.5C 221.234,524.767 219.401,524.433 217.5,524.5C 213.995,536.848 210.328,549.182 206.5,561.5C 207.398,564.294 209.398,565.628 212.5,565.5C 215.853,564.488 217.519,562.155 217.5,558.5C 219.971,558.233 221.638,559.233 222.5,561.5C 221.809,564.931 220.809,568.264 219.5,571.5C 218.833,571.833 218.167,572.167 217.5,572.5C 212.424,570.699 207.424,569.033 202.5,567.5 Z"/></g>
<g><path style="opacity:1" fill="#616161" d="M 195.5,565.5 C 198.152,565.41 200.485,566.076 202.5,567.5C 199.848,567.59 197.515,566.924 195.5,565.5 Z"/></g>
<g><path style="opacity:1" fill="#d7d7d7" d="M 252.5,551.5 C 251.042,551.579 249.708,552.079 248.5,553C 248.957,553.414 249.291,553.914 249.5,554.5C 247.286,556.096 246.286,558.262 246.5,561C 246.871,563.856 247.371,566.689 248,569.5C 248.333,568.5 248.667,567.5 249,566.5C 250.117,567.949 250.784,569.616 251,571.5C 251.893,570.289 252.726,570.289 253.5,571.5C 251.89,573.495 250.557,575.661 249.5,578C 247.288,578.789 245.288,578.622 243.5,577.5C 245.167,577.5 246.833,577.5 248.5,577.5C 249.244,574.05 247.91,572.384 244.5,572.5C 244.615,562.014 245.782,551.681 248,541.5C 249.786,544.736 251.286,548.07 252.5,551.5 Z"/></g>
<g><path style="opacity:1" fill="#7c7c7c" d="M 293.5,554.5 C 294.491,561.313 294.825,568.313 294.5,575.5C 292.5,575.5 290.5,575.5 288.5,575.5C 288.5,576.833 288.5,578.167 288.5,579.5C 287.549,578.081 287.216,576.415 287.5,574.5C 289.5,574.5 291.5,574.5 293.5,574.5C 293.5,567.833 293.5,561.167 293.5,554.5 Z"/></g>
<g><path style="opacity:1" fill="#696969" d="M 239.5,555.5 C 239.745,561.084 239.078,566.417 237.5,571.5C 237.527,565.949 238.194,560.616 239.5,555.5 Z"/></g>
<g><path style="opacity:1" fill="#8d8d8d" d="M 301.5,574.5 C 303.5,574.5 305.5,574.5 307.5,574.5C 307.784,576.415 307.451,578.081 306.5,579.5C 306.5,578.167 306.5,576.833 306.5,575.5C 304.585,575.784 302.919,575.451 301.5,574.5 Z"/></g>
</svg>
